<svg width="1276" height="698" viewBox="0 0 1276 698" fill="none" xmlns="http://www.w3.org/2000/svg">
<g filter="url(#filter0_d_2_426)">
<rect x="14" y="14" width="1247.2" height="670" rx="20" fill="white"/>
</g>
<g filter="url(#filter1_d_2_426)">
<rect x="58.843" y="305.534" width="1151.91" height="82.0827" rx="14" fill="white"/>
</g>
<path d="M95.76 342.76H101.44C102.907 342.76 104.047 343.113 104.86 343.82C105.687 344.527 106.1 345.5 106.1 346.74C106.1 347.98 105.687 348.96 104.86 349.68C104.033 350.387 102.893 350.74 101.44 350.74H97.4V357H95.76V342.76ZM101.3 349.38C102.353 349.38 103.147 349.153 103.68 348.7C104.213 348.247 104.48 347.593 104.48 346.74C104.48 345.887 104.213 345.24 103.68 344.8C103.147 344.347 102.353 344.12 101.3 344.12H97.4V349.38H101.3ZM117.135 346.94V357H115.535V355.18C115.242 355.807 114.795 356.293 114.195 356.64C113.608 356.973 112.922 357.14 112.135 357.14C111.242 357.14 110.455 356.927 109.775 356.5C109.108 356.073 108.588 355.473 108.215 354.7C107.855 353.913 107.675 353 107.675 351.96C107.675 350.92 107.862 350.007 108.235 349.22C108.608 348.42 109.128 347.8 109.795 347.36C110.475 346.92 111.255 346.7 112.135 346.7C112.922 346.7 113.608 346.873 114.195 347.22C114.782 347.567 115.228 348.053 115.535 348.68V346.94H117.135ZM112.455 355.8C113.442 355.8 114.202 355.467 114.735 354.8C115.268 354.12 115.535 353.16 115.535 351.92C115.535 350.68 115.268 349.727 114.735 349.06C114.202 348.393 113.442 348.06 112.455 348.06C111.468 348.06 110.695 348.407 110.135 349.1C109.588 349.78 109.315 350.733 109.315 351.96C109.315 353.187 109.588 354.133 110.135 354.8C110.682 355.467 111.455 355.8 112.455 355.8ZM124.947 346.7C125.28 346.7 125.587 346.74 125.867 346.82L125.827 348.3C125.52 348.193 125.167 348.14 124.767 348.14C123.794 348.14 123.067 348.447 122.587 349.06C122.12 349.66 121.887 350.393 121.887 351.26V357H120.267V349.76C120.267 348.72 120.214 347.78 120.107 346.94H121.647L121.807 348.8C122.06 348.12 122.467 347.6 123.027 347.24C123.587 346.88 124.227 346.7 124.947 346.7ZM130.454 348.22V353.72C130.454 354.467 130.608 354.993 130.914 355.3C131.221 355.593 131.654 355.74 132.214 355.74C132.588 355.74 132.948 355.68 133.294 355.56V356.94C132.881 357.073 132.414 357.14 131.894 357.14C130.934 357.14 130.181 356.873 129.634 356.34C129.101 355.793 128.834 354.993 128.834 353.94V348.22H126.874V346.94H128.834V344.36L130.454 343.78V346.94H133.334V348.22H130.454ZM135.287 346.94H136.907V357H135.287V346.94ZM137.107 342.68V344.52H135.127V342.68H137.107ZM144.272 357.14C143.299 357.14 142.446 356.927 141.712 356.5C140.992 356.073 140.432 355.473 140.032 354.7C139.646 353.913 139.452 353 139.452 351.96C139.452 350.92 139.652 350.007 140.052 349.22C140.452 348.42 141.019 347.8 141.752 347.36C142.499 346.92 143.366 346.7 144.352 346.7C145.032 346.7 145.686 346.82 146.312 347.06C146.952 347.287 147.479 347.607 147.892 348.02L147.352 349.22C146.846 348.82 146.352 348.527 145.872 348.34C145.406 348.153 144.926 348.06 144.432 348.06C143.406 348.06 142.599 348.407 142.012 349.1C141.426 349.78 141.132 350.733 141.132 351.96C141.132 353.173 141.419 354.12 141.992 354.8C142.579 355.467 143.392 355.8 144.432 355.8C144.926 355.8 145.406 355.707 145.872 355.52C146.352 355.333 146.846 355.04 147.352 354.64L147.892 355.84C147.466 356.24 146.926 356.56 146.272 356.8C145.632 357.027 144.966 357.14 144.272 357.14ZM149.955 346.94H151.575V357H149.955V346.94ZM151.775 342.68V344.52H149.795V342.68H151.775ZM159.74 346.7C160.62 346.7 161.4 346.92 162.08 347.36C162.76 347.8 163.287 348.42 163.66 349.22C164.033 350.007 164.22 350.92 164.22 351.96C164.22 353 164.033 353.913 163.66 354.7C163.287 355.473 162.76 356.073 162.08 356.5C161.413 356.927 160.633 357.14 159.74 357.14C158.953 357.14 158.267 356.967 157.68 356.62C157.093 356.273 156.647 355.78 156.34 355.14V361.32H154.72V349.76C154.72 348.72 154.667 347.78 154.56 346.94H156.1L156.26 348.88C156.54 348.187 156.98 347.653 157.58 347.28C158.193 346.893 158.913 346.7 159.74 346.7ZM159.44 355.8C160.427 355.8 161.187 355.467 161.72 354.8C162.267 354.133 162.54 353.187 162.54 351.96C162.54 350.733 162.267 349.78 161.72 349.1C161.173 348.407 160.413 348.06 159.44 348.06C158.44 348.06 157.673 348.393 157.14 349.06C156.607 349.727 156.34 350.68 156.34 351.92C156.34 353.16 156.607 354.12 157.14 354.8C157.673 355.467 158.44 355.8 159.44 355.8ZM175.572 346.94V357H173.972V355.18C173.679 355.807 173.232 356.293 172.632 356.64C172.046 356.973 171.359 357.14 170.572 357.14C169.679 357.14 168.892 356.927 168.212 356.5C167.546 356.073 167.026 355.473 166.652 354.7C166.292 353.913 166.112 353 166.112 351.96C166.112 350.92 166.299 350.007 166.672 349.22C167.046 348.42 167.566 347.8 168.232 347.36C168.912 346.92 169.692 346.7 170.572 346.7C171.359 346.7 172.046 346.873 172.632 347.22C173.219 347.567 173.666 348.053 173.972 348.68V346.94H175.572ZM170.892 355.8C171.879 355.8 172.639 355.467 173.172 354.8C173.706 354.12 173.972 353.16 173.972 351.92C173.972 350.68 173.706 349.727 173.172 349.06C172.639 348.393 171.879 348.06 170.892 348.06C169.906 348.06 169.132 348.407 168.572 349.1C168.026 349.78 167.752 350.733 167.752 351.96C167.752 353.187 168.026 354.133 168.572 354.8C169.119 355.467 169.892 355.8 170.892 355.8ZM183.725 346.7C186.138 346.7 187.345 348.027 187.345 350.68V357H185.725V350.76C185.725 349.827 185.538 349.147 185.165 348.72C184.791 348.28 184.205 348.06 183.405 348.06C182.471 348.06 181.725 348.347 181.165 348.92C180.605 349.493 180.325 350.267 180.325 351.24V357H178.705V349.76C178.705 348.72 178.651 347.78 178.545 346.94H180.085L180.245 348.74C180.551 348.087 181.011 347.587 181.625 347.24C182.238 346.88 182.938 346.7 183.725 346.7ZM192.564 348.22V353.72C192.564 354.467 192.717 354.993 193.024 355.3C193.33 355.593 193.764 355.74 194.324 355.74C194.697 355.74 195.057 355.68 195.404 355.56V356.94C194.99 357.073 194.524 357.14 194.004 357.14C193.044 357.14 192.29 356.873 191.744 356.34C191.21 355.793 190.944 354.993 190.944 353.94V348.22H188.984V346.94H190.944V344.36L192.564 343.78V346.94H195.444V348.22H192.564ZM214.231 342.76V357H212.951L204.351 345.54V357H202.811V342.76H204.071L212.671 354.22V342.76H214.231ZM226.393 346.94V357H224.793V355.18C224.499 355.807 224.053 356.293 223.453 356.64C222.866 356.973 222.179 357.14 221.393 357.14C220.499 357.14 219.713 356.927 219.033 356.5C218.366 356.073 217.846 355.473 217.473 354.7C217.113 353.913 216.933 353 216.933 351.96C216.933 350.92 217.119 350.007 217.493 349.22C217.866 348.42 218.386 347.8 219.053 347.36C219.733 346.92 220.513 346.7 221.393 346.7C222.179 346.7 222.866 346.873 223.453 347.22C224.039 347.567 224.486 348.053 224.793 348.68V346.94H226.393ZM221.713 355.8C222.699 355.8 223.459 355.467 223.993 354.8C224.526 354.12 224.793 353.16 224.793 351.92C224.793 350.68 224.526 349.727 223.993 349.06C223.459 348.393 222.699 348.06 221.713 348.06C220.726 348.06 219.953 348.407 219.393 349.1C218.846 349.78 218.573 350.733 218.573 351.96C218.573 353.187 218.846 354.133 219.393 354.8C219.939 355.467 220.713 355.8 221.713 355.8ZM240.685 346.7C242.912 346.7 244.025 348.027 244.025 350.68V357H242.405V350.76C242.405 349.813 242.238 349.127 241.905 348.7C241.585 348.273 241.058 348.06 240.325 348.06C239.472 348.06 238.805 348.347 238.325 348.92C237.845 349.493 237.605 350.273 237.605 351.26V357H235.985V350.76C235.985 349.827 235.818 349.147 235.485 348.72C235.152 348.28 234.618 348.06 233.885 348.06C233.032 348.06 232.358 348.347 231.865 348.92C231.385 349.493 231.145 350.273 231.145 351.26V357H229.525V349.76C229.525 348.72 229.472 347.78 229.365 346.94H230.905L231.065 348.7C231.345 348.06 231.758 347.567 232.305 347.22C232.865 346.873 233.512 346.7 234.245 346.7C235.045 346.7 235.698 346.86 236.205 347.18C236.712 347.5 237.085 347.993 237.325 348.66C237.632 348.06 238.078 347.587 238.665 347.24C239.265 346.88 239.938 346.7 240.685 346.7ZM255.523 351.92H248.143C248.156 353.2 248.45 354.167 249.023 354.82C249.61 355.473 250.456 355.8 251.563 355.8C252.736 355.8 253.816 355.407 254.803 354.62L255.343 355.8C254.903 356.213 254.336 356.54 253.643 356.78C252.963 357.02 252.263 357.14 251.543 357.14C249.97 357.14 248.736 356.68 247.843 355.76C246.95 354.827 246.503 353.553 246.503 351.94C246.503 350.913 246.703 350.007 247.103 349.22C247.503 348.42 248.063 347.8 248.783 347.36C249.503 346.92 250.323 346.7 251.243 346.7C252.576 346.7 253.623 347.14 254.383 348.02C255.143 348.887 255.523 350.087 255.523 351.62V351.92ZM251.263 347.96C250.423 347.96 249.736 348.213 249.203 348.72C248.683 349.227 248.35 349.94 248.203 350.86H254.063C253.983 349.913 253.703 349.193 253.223 348.7C252.756 348.207 252.103 347.96 251.263 347.96ZM272.457 355.62V357H263.297V355.76L268.277 350.24C268.943 349.493 269.43 348.82 269.737 348.22C270.043 347.62 270.197 347.02 270.197 346.42C270.197 345.633 269.97 345.033 269.517 344.62C269.063 344.193 268.417 343.98 267.577 343.98C266.217 343.98 264.87 344.527 263.537 345.62L262.917 344.36C263.477 343.827 264.183 343.4 265.037 343.08C265.89 342.76 266.75 342.6 267.617 342.6C268.923 342.6 269.957 342.94 270.717 343.62C271.477 344.287 271.857 345.193 271.857 346.34C271.857 347.153 271.67 347.94 271.297 348.7C270.937 349.447 270.33 350.287 269.477 351.22L265.417 355.62H272.457Z" fill="#626275"/>
<path d="M882.82 355.62V357H873.66V355.76L878.64 350.24C879.307 349.493 879.793 348.82 880.1 348.22C880.407 347.62 880.56 347.02 880.56 346.42C880.56 345.633 880.333 345.033 879.88 344.62C879.427 344.193 878.78 343.98 877.94 343.98C876.58 343.98 875.233 344.527 873.9 345.62L873.28 344.36C873.84 343.827 874.547 343.4 875.4 343.08C876.253 342.76 877.113 342.6 877.98 342.6C879.287 342.6 880.32 342.94 881.08 343.62C881.84 344.287 882.22 345.193 882.22 346.34C882.22 347.153 882.033 347.94 881.66 348.7C881.3 349.447 880.693 350.287 879.84 351.22L875.78 355.62H882.82ZM890.592 348.06C891.459 348.06 892.226 348.253 892.892 348.64C893.572 349.013 894.099 349.547 894.472 350.24C894.846 350.92 895.032 351.7 895.032 352.58C895.032 353.46 894.832 354.247 894.432 354.94C894.046 355.633 893.506 356.18 892.812 356.58C892.119 356.967 891.332 357.16 890.452 357.16C888.732 357.16 887.406 356.56 886.472 355.36C885.539 354.16 885.072 352.453 885.072 350.24C885.072 348.64 885.286 347.267 885.712 346.12C886.152 344.973 886.779 344.1 887.592 343.5C888.419 342.9 889.406 342.6 890.552 342.6C891.379 342.6 892.179 342.753 892.952 343.06C893.739 343.367 894.426 343.8 895.012 344.36L894.392 345.62C893.726 345.06 893.086 344.647 892.472 344.38C891.859 344.113 891.232 343.98 890.592 343.98C889.366 343.98 888.412 344.527 887.732 345.62C887.052 346.713 886.712 348.247 886.712 350.22V350.52C887.019 349.76 887.519 349.16 888.212 348.72C888.906 348.28 889.699 348.06 890.592 348.06ZM890.372 355.78C891.279 355.78 892.012 355.493 892.572 354.92C893.132 354.333 893.412 353.56 893.412 352.6C893.412 351.653 893.126 350.893 892.552 350.32C891.992 349.733 891.259 349.44 890.352 349.44C889.419 349.44 888.659 349.733 888.072 350.32C887.486 350.907 887.192 351.667 887.192 352.6C887.192 353.547 887.486 354.313 888.072 354.9C888.659 355.487 889.426 355.78 890.372 355.78Z" fill="#052D8F"/>
<g filter="url(#filter2_d_2_426)">
<rect x="58.843" y="409.164" width="1151.91" height="82.0827" rx="14" fill="white"/>
</g>
<path d="M95.76 443.76H101.44C102.907 443.76 104.047 444.113 104.86 444.82C105.687 445.527 106.1 446.5 106.1 447.74C106.1 448.98 105.687 449.96 104.86 450.68C104.033 451.387 102.893 451.74 101.44 451.74H97.4V458H95.76V443.76ZM101.3 450.38C102.353 450.38 103.147 450.153 103.68 449.7C104.213 449.247 104.48 448.593 104.48 447.74C104.48 446.887 104.213 446.24 103.68 445.8C103.147 445.347 102.353 445.12 101.3 445.12H97.4V450.38H101.3ZM117.135 447.94V458H115.535V456.18C115.242 456.807 114.795 457.293 114.195 457.64C113.608 457.973 112.922 458.14 112.135 458.14C111.242 458.14 110.455 457.927 109.775 457.5C109.108 457.073 108.588 456.473 108.215 455.7C107.855 454.913 107.675 454 107.675 452.96C107.675 451.92 107.862 451.007 108.235 450.22C108.608 449.42 109.128 448.8 109.795 448.36C110.475 447.92 111.255 447.7 112.135 447.7C112.922 447.7 113.608 447.873 114.195 448.22C114.782 448.567 115.228 449.053 115.535 449.68V447.94H117.135ZM112.455 456.8C113.442 456.8 114.202 456.467 114.735 455.8C115.268 455.12 115.535 454.16 115.535 452.92C115.535 451.68 115.268 450.727 114.735 450.06C114.202 449.393 113.442 449.06 112.455 449.06C111.468 449.06 110.695 449.407 110.135 450.1C109.588 450.78 109.315 451.733 109.315 452.96C109.315 454.187 109.588 455.133 110.135 455.8C110.682 456.467 111.455 456.8 112.455 456.8ZM124.947 447.7C125.28 447.7 125.587 447.74 125.867 447.82L125.827 449.3C125.52 449.193 125.167 449.14 124.767 449.14C123.794 449.14 123.067 449.447 122.587 450.06C122.12 450.66 121.887 451.393 121.887 452.26V458H120.267V450.76C120.267 449.72 120.214 448.78 120.107 447.94H121.647L121.807 449.8C122.06 449.12 122.467 448.6 123.027 448.24C123.587 447.88 124.227 447.7 124.947 447.7ZM130.454 449.22V454.72C130.454 455.467 130.608 455.993 130.914 456.3C131.221 456.593 131.654 456.74 132.214 456.74C132.588 456.74 132.948 456.68 133.294 456.56V457.94C132.881 458.073 132.414 458.14 131.894 458.14C130.934 458.14 130.181 457.873 129.634 457.34C129.101 456.793 128.834 455.993 128.834 454.94V449.22H126.874V447.94H128.834V445.36L130.454 444.78V447.94H133.334V449.22H130.454ZM135.287 447.94H136.907V458H135.287V447.94ZM137.107 443.68V445.52H135.127V443.68H137.107ZM144.272 458.14C143.299 458.14 142.446 457.927 141.712 457.5C140.992 457.073 140.432 456.473 140.032 455.7C139.646 454.913 139.452 454 139.452 452.96C139.452 451.92 139.652 451.007 140.052 450.22C140.452 449.42 141.019 448.8 141.752 448.36C142.499 447.92 143.366 447.7 144.352 447.7C145.032 447.7 145.686 447.82 146.312 448.06C146.952 448.287 147.479 448.607 147.892 449.02L147.352 450.22C146.846 449.82 146.352 449.527 145.872 449.34C145.406 449.153 144.926 449.06 144.432 449.06C143.406 449.06 142.599 449.407 142.012 450.1C141.426 450.78 141.132 451.733 141.132 452.96C141.132 454.173 141.419 455.12 141.992 455.8C142.579 456.467 143.392 456.8 144.432 456.8C144.926 456.8 145.406 456.707 145.872 456.52C146.352 456.333 146.846 456.04 147.352 455.64L147.892 456.84C147.466 457.24 146.926 457.56 146.272 457.8C145.632 458.027 144.966 458.14 144.272 458.14ZM149.955 447.94H151.575V458H149.955V447.94ZM151.775 443.68V445.52H149.795V443.68H151.775ZM159.74 447.7C160.62 447.7 161.4 447.92 162.08 448.36C162.76 448.8 163.287 449.42 163.66 450.22C164.033 451.007 164.22 451.92 164.22 452.96C164.22 454 164.033 454.913 163.66 455.7C163.287 456.473 162.76 457.073 162.08 457.5C161.413 457.927 160.633 458.14 159.74 458.14C158.953 458.14 158.267 457.967 157.68 457.62C157.093 457.273 156.647 456.78 156.34 456.14V462.32H154.72V450.76C154.72 449.72 154.667 448.78 154.56 447.94H156.1L156.26 449.88C156.54 449.187 156.98 448.653 157.58 448.28C158.193 447.893 158.913 447.7 159.74 447.7ZM159.44 456.8C160.427 456.8 161.187 456.467 161.72 455.8C162.267 455.133 162.54 454.187 162.54 452.96C162.54 451.733 162.267 450.78 161.72 450.1C161.173 449.407 160.413 449.06 159.44 449.06C158.44 449.06 157.673 449.393 157.14 450.06C156.607 450.727 156.34 451.68 156.34 452.92C156.34 454.16 156.607 455.12 157.14 455.8C157.673 456.467 158.44 456.8 159.44 456.8ZM175.572 447.94V458H173.972V456.18C173.679 456.807 173.232 457.293 172.632 457.64C172.046 457.973 171.359 458.14 170.572 458.14C169.679 458.14 168.892 457.927 168.212 457.5C167.546 457.073 167.026 456.473 166.652 455.7C166.292 454.913 166.112 454 166.112 452.96C166.112 451.92 166.299 451.007 166.672 450.22C167.046 449.42 167.566 448.8 168.232 448.36C168.912 447.92 169.692 447.7 170.572 447.7C171.359 447.7 172.046 447.873 172.632 448.22C173.219 448.567 173.666 449.053 173.972 449.68V447.94H175.572ZM170.892 456.8C171.879 456.8 172.639 456.467 173.172 455.8C173.706 455.12 173.972 454.16 173.972 452.92C173.972 451.68 173.706 450.727 173.172 450.06C172.639 449.393 171.879 449.06 170.892 449.06C169.906 449.06 169.132 449.407 168.572 450.1C168.026 450.78 167.752 451.733 167.752 452.96C167.752 454.187 168.026 455.133 168.572 455.8C169.119 456.467 169.892 456.8 170.892 456.8ZM183.725 447.7C186.138 447.7 187.345 449.027 187.345 451.68V458H185.725V451.76C185.725 450.827 185.538 450.147 185.165 449.72C184.791 449.28 184.205 449.06 183.405 449.06C182.471 449.06 181.725 449.347 181.165 449.92C180.605 450.493 180.325 451.267 180.325 452.24V458H178.705V450.76C178.705 449.72 178.651 448.78 178.545 447.94H180.085L180.245 449.74C180.551 449.087 181.011 448.587 181.625 448.24C182.238 447.88 182.938 447.7 183.725 447.7ZM192.564 449.22V454.72C192.564 455.467 192.717 455.993 193.024 456.3C193.33 456.593 193.764 456.74 194.324 456.74C194.697 456.74 195.057 456.68 195.404 456.56V457.94C194.99 458.073 194.524 458.14 194.004 458.14C193.044 458.14 192.29 457.873 191.744 457.34C191.21 456.793 190.944 455.993 190.944 454.94V449.22H188.984V447.94H190.944V445.36L192.564 444.78V447.94H195.444V449.22H192.564ZM214.231 443.76V458H212.951L204.351 446.54V458H202.811V443.76H204.071L212.671 455.22V443.76H214.231ZM226.393 447.94V458H224.793V456.18C224.499 456.807 224.053 457.293 223.453 457.64C222.866 457.973 222.179 458.14 221.393 458.14C220.499 458.14 219.713 457.927 219.033 457.5C218.366 457.073 217.846 456.473 217.473 455.7C217.113 454.913 216.933 454 216.933 452.96C216.933 451.92 217.119 451.007 217.493 450.22C217.866 449.42 218.386 448.8 219.053 448.36C219.733 447.92 220.513 447.7 221.393 447.7C222.179 447.7 222.866 447.873 223.453 448.22C224.039 448.567 224.486 449.053 224.793 449.68V447.94H226.393ZM221.713 456.8C222.699 456.8 223.459 456.467 223.993 455.8C224.526 455.12 224.793 454.16 224.793 452.92C224.793 451.68 224.526 450.727 223.993 450.06C223.459 449.393 222.699 449.06 221.713 449.06C220.726 449.06 219.953 449.407 219.393 450.1C218.846 450.78 218.573 451.733 218.573 452.96C218.573 454.187 218.846 455.133 219.393 455.8C219.939 456.467 220.713 456.8 221.713 456.8ZM240.685 447.7C242.912 447.7 244.025 449.027 244.025 451.68V458H242.405V451.76C242.405 450.813 242.238 450.127 241.905 449.7C241.585 449.273 241.058 449.06 240.325 449.06C239.472 449.06 238.805 449.347 238.325 449.92C237.845 450.493 237.605 451.273 237.605 452.26V458H235.985V451.76C235.985 450.827 235.818 450.147 235.485 449.72C235.152 449.28 234.618 449.06 233.885 449.06C233.032 449.06 232.358 449.347 231.865 449.92C231.385 450.493 231.145 451.273 231.145 452.26V458H229.525V450.76C229.525 449.72 229.472 448.78 229.365 447.94H230.905L231.065 449.7C231.345 449.06 231.758 448.567 232.305 448.22C232.865 447.873 233.512 447.7 234.245 447.7C235.045 447.7 235.698 447.86 236.205 448.18C236.712 448.5 237.085 448.993 237.325 449.66C237.632 449.06 238.078 448.587 238.665 448.24C239.265 447.88 239.938 447.7 240.685 447.7ZM255.523 452.92H248.143C248.156 454.2 248.45 455.167 249.023 455.82C249.61 456.473 250.456 456.8 251.563 456.8C252.736 456.8 253.816 456.407 254.803 455.62L255.343 456.8C254.903 457.213 254.336 457.54 253.643 457.78C252.963 458.02 252.263 458.14 251.543 458.14C249.97 458.14 248.736 457.68 247.843 456.76C246.95 455.827 246.503 454.553 246.503 452.94C246.503 451.913 246.703 451.007 247.103 450.22C247.503 449.42 248.063 448.8 248.783 448.36C249.503 447.92 250.323 447.7 251.243 447.7C252.576 447.7 253.623 448.14 254.383 449.02C255.143 449.887 255.523 451.087 255.523 452.62V452.92ZM251.263 448.96C250.423 448.96 249.736 449.213 249.203 449.72C248.683 450.227 248.35 450.94 248.203 451.86H254.063C253.983 450.913 253.703 450.193 253.223 449.7C252.756 449.207 252.103 448.96 251.263 448.96ZM272.457 456.62V458H263.297V456.76L268.277 451.24C268.943 450.493 269.43 449.82 269.737 449.22C270.043 448.62 270.197 448.02 270.197 447.42C270.197 446.633 269.97 446.033 269.517 445.62C269.063 445.193 268.417 444.98 267.577 444.98C266.217 444.98 264.87 445.527 263.537 446.62L262.917 445.36C263.477 444.827 264.183 444.4 265.037 444.08C265.89 443.76 266.75 443.6 267.617 443.6C268.923 443.6 269.957 443.94 270.717 444.62C271.477 445.287 271.857 446.193 271.857 447.34C271.857 448.153 271.67 448.94 271.297 449.7C270.937 450.447 270.33 451.287 269.477 452.22L265.417 456.62H272.457Z" fill="#626275"/>
<path d="M884.582 456.62V458H876.642V456.62H879.782V445.8L876.862 447.66V446.08L880.502 443.76H881.442V456.62H884.582ZM897.414 454.9H895.254V458H893.614V454.9H887.054V453.66L893.914 443.76H895.254V453.54H897.414V454.9ZM893.614 453.54V446.54L888.754 453.54H893.614Z" fill="#052D8F"/>
<g filter="url(#filter3_d_2_426)">
<rect x="56.0403" y="512.793" width="1151.91" height="82.0827" rx="14" fill="white"/>
</g>
<path d="M93.76 547.76H99.44C100.907 547.76 102.047 548.113 102.86 548.82C103.687 549.527 104.1 550.5 104.1 551.74C104.1 552.98 103.687 553.96 102.86 554.68C102.033 555.387 100.893 555.74 99.44 555.74H95.4V562H93.76V547.76ZM99.3 554.38C100.353 554.38 101.147 554.153 101.68 553.7C102.213 553.247 102.48 552.593 102.48 551.74C102.48 550.887 102.213 550.24 101.68 549.8C101.147 549.347 100.353 549.12 99.3 549.12H95.4V554.38H99.3ZM115.135 551.94V562H113.535V560.18C113.242 560.807 112.795 561.293 112.195 561.64C111.608 561.973 110.922 562.14 110.135 562.14C109.242 562.14 108.455 561.927 107.775 561.5C107.108 561.073 106.588 560.473 106.215 559.7C105.855 558.913 105.675 558 105.675 556.96C105.675 555.92 105.862 555.007 106.235 554.22C106.608 553.42 107.128 552.8 107.795 552.36C108.475 551.92 109.255 551.7 110.135 551.7C110.922 551.7 111.608 551.873 112.195 552.22C112.782 552.567 113.228 553.053 113.535 553.68V551.94H115.135ZM110.455 560.8C111.442 560.8 112.202 560.467 112.735 559.8C113.268 559.12 113.535 558.16 113.535 556.92C113.535 555.68 113.268 554.727 112.735 554.06C112.202 553.393 111.442 553.06 110.455 553.06C109.468 553.06 108.695 553.407 108.135 554.1C107.588 554.78 107.315 555.733 107.315 556.96C107.315 558.187 107.588 559.133 108.135 559.8C108.682 560.467 109.455 560.8 110.455 560.8ZM122.947 551.7C123.28 551.7 123.587 551.74 123.867 551.82L123.827 553.3C123.52 553.193 123.167 553.14 122.767 553.14C121.794 553.14 121.067 553.447 120.587 554.06C120.12 554.66 119.887 555.393 119.887 556.26V562H118.267V554.76C118.267 553.72 118.214 552.78 118.107 551.94H119.647L119.807 553.8C120.06 553.12 120.467 552.6 121.027 552.24C121.587 551.88 122.227 551.7 122.947 551.7ZM128.454 553.22V558.72C128.454 559.467 128.608 559.993 128.914 560.3C129.221 560.593 129.654 560.74 130.214 560.74C130.588 560.74 130.948 560.68 131.294 560.56V561.94C130.881 562.073 130.414 562.14 129.894 562.14C128.934 562.14 128.181 561.873 127.634 561.34C127.101 560.793 126.834 559.993 126.834 558.94V553.22H124.874V551.94H126.834V549.36L128.454 548.78V551.94H131.334V553.22H128.454ZM133.287 551.94H134.907V562H133.287V551.94ZM135.107 547.68V549.52H133.127V547.68H135.107ZM142.272 562.14C141.299 562.14 140.446 561.927 139.712 561.5C138.992 561.073 138.432 560.473 138.032 559.7C137.646 558.913 137.452 558 137.452 556.96C137.452 555.92 137.652 555.007 138.052 554.22C138.452 553.42 139.019 552.8 139.752 552.36C140.499 551.92 141.366 551.7 142.352 551.7C143.032 551.7 143.686 551.82 144.312 552.06C144.952 552.287 145.479 552.607 145.892 553.02L145.352 554.22C144.846 553.82 144.352 553.527 143.872 553.34C143.406 553.153 142.926 553.06 142.432 553.06C141.406 553.06 140.599 553.407 140.012 554.1C139.426 554.78 139.132 555.733 139.132 556.96C139.132 558.173 139.419 559.12 139.992 559.8C140.579 560.467 141.392 560.8 142.432 560.8C142.926 560.8 143.406 560.707 143.872 560.52C144.352 560.333 144.846 560.04 145.352 559.64L145.892 560.84C145.466 561.24 144.926 561.56 144.272 561.8C143.632 562.027 142.966 562.14 142.272 562.14ZM147.955 551.94H149.575V562H147.955V551.94ZM149.775 547.68V549.52H147.795V547.68H149.775ZM157.74 551.7C158.62 551.7 159.4 551.92 160.08 552.36C160.76 552.8 161.287 553.42 161.66 554.22C162.033 555.007 162.22 555.92 162.22 556.96C162.22 558 162.033 558.913 161.66 559.7C161.287 560.473 160.76 561.073 160.08 561.5C159.413 561.927 158.633 562.14 157.74 562.14C156.953 562.14 156.267 561.967 155.68 561.62C155.093 561.273 154.647 560.78 154.34 560.14V566.32H152.72V554.76C152.72 553.72 152.667 552.78 152.56 551.94H154.1L154.26 553.88C154.54 553.187 154.98 552.653 155.58 552.28C156.193 551.893 156.913 551.7 157.74 551.7ZM157.44 560.8C158.427 560.8 159.187 560.467 159.72 559.8C160.267 559.133 160.54 558.187 160.54 556.96C160.54 555.733 160.267 554.78 159.72 554.1C159.173 553.407 158.413 553.06 157.44 553.06C156.44 553.06 155.673 553.393 155.14 554.06C154.607 554.727 154.34 555.68 154.34 556.92C154.34 558.16 154.607 559.12 155.14 559.8C155.673 560.467 156.44 560.8 157.44 560.8ZM173.572 551.94V562H171.972V560.18C171.679 560.807 171.232 561.293 170.632 561.64C170.046 561.973 169.359 562.14 168.572 562.14C167.679 562.14 166.892 561.927 166.212 561.5C165.546 561.073 165.026 560.473 164.652 559.7C164.292 558.913 164.112 558 164.112 556.96C164.112 555.92 164.299 555.007 164.672 554.22C165.046 553.42 165.566 552.8 166.232 552.36C166.912 551.92 167.692 551.7 168.572 551.7C169.359 551.7 170.046 551.873 170.632 552.22C171.219 552.567 171.666 553.053 171.972 553.68V551.94H173.572ZM168.892 560.8C169.879 560.8 170.639 560.467 171.172 559.8C171.706 559.12 171.972 558.16 171.972 556.92C171.972 555.68 171.706 554.727 171.172 554.06C170.639 553.393 169.879 553.06 168.892 553.06C167.906 553.06 167.132 553.407 166.572 554.1C166.026 554.78 165.752 555.733 165.752 556.96C165.752 558.187 166.026 559.133 166.572 559.8C167.119 560.467 167.892 560.8 168.892 560.8ZM181.725 551.7C184.138 551.7 185.345 553.027 185.345 555.68V562H183.725V555.76C183.725 554.827 183.538 554.147 183.165 553.72C182.791 553.28 182.205 553.06 181.405 553.06C180.471 553.06 179.725 553.347 179.165 553.92C178.605 554.493 178.325 555.267 178.325 556.24V562H176.705V554.76C176.705 553.72 176.651 552.78 176.545 551.94H178.085L178.245 553.74C178.551 553.087 179.011 552.587 179.625 552.24C180.238 551.88 180.938 551.7 181.725 551.7ZM190.564 553.22V558.72C190.564 559.467 190.717 559.993 191.024 560.3C191.33 560.593 191.764 560.74 192.324 560.74C192.697 560.74 193.057 560.68 193.404 560.56V561.94C192.99 562.073 192.524 562.14 192.004 562.14C191.044 562.14 190.29 561.873 189.744 561.34C189.21 560.793 188.944 559.993 188.944 558.94V553.22H186.984V551.94H188.944V549.36L190.564 548.78V551.94H193.444V553.22H190.564ZM212.231 547.76V562H210.951L202.351 550.54V562H200.811V547.76H202.071L210.671 559.22V547.76H212.231ZM224.393 551.94V562H222.793V560.18C222.499 560.807 222.053 561.293 221.453 561.64C220.866 561.973 220.179 562.14 219.393 562.14C218.499 562.14 217.713 561.927 217.033 561.5C216.366 561.073 215.846 560.473 215.473 559.7C215.113 558.913 214.933 558 214.933 556.96C214.933 555.92 215.119 555.007 215.493 554.22C215.866 553.42 216.386 552.8 217.053 552.36C217.733 551.92 218.513 551.7 219.393 551.7C220.179 551.7 220.866 551.873 221.453 552.22C222.039 552.567 222.486 553.053 222.793 553.68V551.94H224.393ZM219.713 560.8C220.699 560.8 221.459 560.467 221.993 559.8C222.526 559.12 222.793 558.16 222.793 556.92C222.793 555.68 222.526 554.727 221.993 554.06C221.459 553.393 220.699 553.06 219.713 553.06C218.726 553.06 217.953 553.407 217.393 554.1C216.846 554.78 216.573 555.733 216.573 556.96C216.573 558.187 216.846 559.133 217.393 559.8C217.939 560.467 218.713 560.8 219.713 560.8ZM238.685 551.7C240.912 551.7 242.025 553.027 242.025 555.68V562H240.405V555.76C240.405 554.813 240.238 554.127 239.905 553.7C239.585 553.273 239.058 553.06 238.325 553.06C237.472 553.06 236.805 553.347 236.325 553.92C235.845 554.493 235.605 555.273 235.605 556.26V562H233.985V555.76C233.985 554.827 233.818 554.147 233.485 553.72C233.152 553.28 232.618 553.06 231.885 553.06C231.032 553.06 230.358 553.347 229.865 553.92C229.385 554.493 229.145 555.273 229.145 556.26V562H227.525V554.76C227.525 553.72 227.472 552.78 227.365 551.94H228.905L229.065 553.7C229.345 553.06 229.758 552.567 230.305 552.22C230.865 551.873 231.512 551.7 232.245 551.7C233.045 551.7 233.698 551.86 234.205 552.18C234.712 552.5 235.085 552.993 235.325 553.66C235.632 553.06 236.078 552.587 236.665 552.24C237.265 551.88 237.938 551.7 238.685 551.7ZM253.523 556.92H246.143C246.156 558.2 246.45 559.167 247.023 559.82C247.61 560.473 248.456 560.8 249.563 560.8C250.736 560.8 251.816 560.407 252.803 559.62L253.343 560.8C252.903 561.213 252.336 561.54 251.643 561.78C250.963 562.02 250.263 562.14 249.543 562.14C247.97 562.14 246.736 561.68 245.843 560.76C244.95 559.827 244.503 558.553 244.503 556.94C244.503 555.913 244.703 555.007 245.103 554.22C245.503 553.42 246.063 552.8 246.783 552.36C247.503 551.92 248.323 551.7 249.243 551.7C250.576 551.7 251.623 552.14 252.383 553.02C253.143 553.887 253.523 555.087 253.523 556.62V556.92ZM249.263 552.96C248.423 552.96 247.736 553.213 247.203 553.72C246.683 554.227 246.35 554.94 246.203 555.86H252.063C251.983 554.913 251.703 554.193 251.223 553.7C250.756 553.207 250.103 552.96 249.263 552.96ZM270.457 560.62V562H261.297V560.76L266.277 555.24C266.943 554.493 267.43 553.82 267.737 553.22C268.043 552.62 268.197 552.02 268.197 551.42C268.197 550.633 267.97 550.033 267.517 549.62C267.063 549.193 266.417 548.98 265.577 548.98C264.217 548.98 262.87 549.527 261.537 550.62L260.917 549.36C261.477 548.827 262.183 548.4 263.037 548.08C263.89 547.76 264.75 547.6 265.617 547.6C266.923 547.6 267.957 547.94 268.717 548.62C269.477 549.287 269.857 550.193 269.857 551.34C269.857 552.153 269.67 552.94 269.297 553.7C268.937 554.447 268.33 555.287 267.477 556.22L263.417 560.62H270.457Z" fill="#626275"/>
<path d="M883.16 554.68C884.093 554.933 884.813 555.373 885.32 556C885.84 556.613 886.1 557.353 886.1 558.22C886.1 559.433 885.64 560.393 884.72 561.1C883.8 561.793 882.56 562.14 881 562.14C879.44 562.14 878.2 561.793 877.28 561.1C876.36 560.393 875.9 559.433 875.9 558.22C875.9 557.353 876.16 556.607 876.68 555.98C877.213 555.353 877.94 554.92 878.86 554.68C878.007 554.427 877.353 554.013 876.9 553.44C876.447 552.853 876.22 552.167 876.22 551.38C876.22 550.62 876.42 549.96 876.82 549.4C877.22 548.827 877.78 548.387 878.5 548.08C879.233 547.76 880.067 547.6 881 547.6C881.933 547.6 882.76 547.76 883.48 548.08C884.213 548.387 884.78 548.827 885.18 549.4C885.58 549.96 885.78 550.62 885.78 551.38C885.78 552.167 885.547 552.853 885.08 553.44C884.627 554.013 883.987 554.427 883.16 554.68ZM877.86 551.5C877.86 552.26 878.14 552.88 878.7 553.36C879.273 553.827 880.04 554.113 881 554.22C881.96 554.113 882.72 553.827 883.28 553.36C883.853 552.88 884.14 552.26 884.14 551.5C884.14 550.713 883.86 550.093 883.3 549.64C882.753 549.187 881.987 548.96 881 548.96C880.013 548.96 879.24 549.187 878.68 549.64C878.133 550.093 877.86 550.713 877.86 551.5ZM881 560.78C882.12 560.78 882.98 560.553 883.58 560.1C884.18 559.647 884.48 558.987 884.48 558.12C884.48 557.333 884.16 556.707 883.52 556.24C882.893 555.76 882.053 555.467 881 555.36C879.947 555.467 879.1 555.76 878.46 556.24C877.833 556.707 877.52 557.333 877.52 558.12C877.52 558.987 877.82 559.647 878.42 560.1C879.02 560.553 879.88 560.78 881 560.78Z" fill="#052D8F"/>
<g filter="url(#filter4_d_2_426)">
<rect x="59" y="616" width="1152" height="68" rx="14" fill="white"/>
</g>
<path d="M93.76 647.76H99.44C100.907 647.76 102.047 648.113 102.86 648.82C103.687 649.527 104.1 650.5 104.1 651.74C104.1 652.98 103.687 653.96 102.86 654.68C102.033 655.387 100.893 655.74 99.44 655.74H95.4V662H93.76V647.76ZM99.3 654.38C100.353 654.38 101.147 654.153 101.68 653.7C102.213 653.247 102.48 652.593 102.48 651.74C102.48 650.887 102.213 650.24 101.68 649.8C101.147 649.347 100.353 649.12 99.3 649.12H95.4V654.38H99.3ZM115.135 651.94V662H113.535V660.18C113.242 660.807 112.795 661.293 112.195 661.64C111.608 661.973 110.922 662.14 110.135 662.14C109.242 662.14 108.455 661.927 107.775 661.5C107.108 661.073 106.588 660.473 106.215 659.7C105.855 658.913 105.675 658 105.675 656.96C105.675 655.92 105.862 655.007 106.235 654.22C106.608 653.42 107.128 652.8 107.795 652.36C108.475 651.92 109.255 651.7 110.135 651.7C110.922 651.7 111.608 651.873 112.195 652.22C112.782 652.567 113.228 653.053 113.535 653.68V651.94H115.135ZM110.455 660.8C111.442 660.8 112.202 660.467 112.735 659.8C113.268 659.12 113.535 658.16 113.535 656.92C113.535 655.68 113.268 654.727 112.735 654.06C112.202 653.393 111.442 653.06 110.455 653.06C109.468 653.06 108.695 653.407 108.135 654.1C107.588 654.78 107.315 655.733 107.315 656.96C107.315 658.187 107.588 659.133 108.135 659.8C108.682 660.467 109.455 660.8 110.455 660.8ZM122.947 651.7C123.28 651.7 123.587 651.74 123.867 651.82L123.827 653.3C123.52 653.193 123.167 653.14 122.767 653.14C121.794 653.14 121.067 653.447 120.587 654.06C120.12 654.66 119.887 655.393 119.887 656.26V662H118.267V654.76C118.267 653.72 118.214 652.78 118.107 651.94H119.647L119.807 653.8C120.06 653.12 120.467 652.6 121.027 652.24C121.587 651.88 122.227 651.7 122.947 651.7ZM128.454 653.22V658.72C128.454 659.467 128.608 659.993 128.914 660.3C129.221 660.593 129.654 660.74 130.214 660.74C130.588 660.74 130.948 660.68 131.294 660.56V661.94C130.881 662.073 130.414 662.14 129.894 662.14C128.934 662.14 128.181 661.873 127.634 661.34C127.101 660.793 126.834 659.993 126.834 658.94V653.22H124.874V651.94H126.834V649.36L128.454 648.78V651.94H131.334V653.22H128.454ZM133.287 651.94H134.907V662H133.287V651.94ZM135.107 647.68V649.52H133.127V647.68H135.107ZM142.272 662.14C141.299 662.14 140.446 661.927 139.712 661.5C138.992 661.073 138.432 660.473 138.032 659.7C137.646 658.913 137.452 658 137.452 656.96C137.452 655.92 137.652 655.007 138.052 654.22C138.452 653.42 139.019 652.8 139.752 652.36C140.499 651.92 141.366 651.7 142.352 651.7C143.032 651.7 143.686 651.82 144.312 652.06C144.952 652.287 145.479 652.607 145.892 653.02L145.352 654.22C144.846 653.82 144.352 653.527 143.872 653.34C143.406 653.153 142.926 653.06 142.432 653.06C141.406 653.06 140.599 653.407 140.012 654.1C139.426 654.78 139.132 655.733 139.132 656.96C139.132 658.173 139.419 659.12 139.992 659.8C140.579 660.467 141.392 660.8 142.432 660.8C142.926 660.8 143.406 660.707 143.872 660.52C144.352 660.333 144.846 660.04 145.352 659.64L145.892 660.84C145.466 661.24 144.926 661.56 144.272 661.8C143.632 662.027 142.966 662.14 142.272 662.14ZM147.955 651.94H149.575V662H147.955V651.94ZM149.775 647.68V649.52H147.795V647.68H149.775ZM157.74 651.7C158.62 651.7 159.4 651.92 160.08 652.36C160.76 652.8 161.287 653.42 161.66 654.22C162.033 655.007 162.22 655.92 162.22 656.96C162.22 658 162.033 658.913 161.66 659.7C161.287 660.473 160.76 661.073 160.08 661.5C159.413 661.927 158.633 662.14 157.74 662.14C156.953 662.14 156.267 661.967 155.68 661.62C155.093 661.273 154.647 660.78 154.34 660.14V666.32H152.72V654.76C152.72 653.72 152.667 652.78 152.56 651.94H154.1L154.26 653.88C154.54 653.187 154.98 652.653 155.58 652.28C156.193 651.893 156.913 651.7 157.74 651.7ZM157.44 660.8C158.427 660.8 159.187 660.467 159.72 659.8C160.267 659.133 160.54 658.187 160.54 656.96C160.54 655.733 160.267 654.78 159.72 654.1C159.173 653.407 158.413 653.06 157.44 653.06C156.44 653.06 155.673 653.393 155.14 654.06C154.607 654.727 154.34 655.68 154.34 656.92C154.34 658.16 154.607 659.12 155.14 659.8C155.673 660.467 156.44 660.8 157.44 660.8ZM173.572 651.94V662H171.972V660.18C171.679 660.807 171.232 661.293 170.632 661.64C170.046 661.973 169.359 662.14 168.572 662.14C167.679 662.14 166.892 661.927 166.212 661.5C165.546 661.073 165.026 660.473 164.652 659.7C164.292 658.913 164.112 658 164.112 656.96C164.112 655.92 164.299 655.007 164.672 654.22C165.046 653.42 165.566 652.8 166.232 652.36C166.912 651.92 167.692 651.7 168.572 651.7C169.359 651.7 170.046 651.873 170.632 652.22C171.219 652.567 171.666 653.053 171.972 653.68V651.94H173.572ZM168.892 660.8C169.879 660.8 170.639 660.467 171.172 659.8C171.706 659.12 171.972 658.16 171.972 656.92C171.972 655.68 171.706 654.727 171.172 654.06C170.639 653.393 169.879 653.06 168.892 653.06C167.906 653.06 167.132 653.407 166.572 654.1C166.026 654.78 165.752 655.733 165.752 656.96C165.752 658.187 166.026 659.133 166.572 659.8C167.119 660.467 167.892 660.8 168.892 660.8ZM181.725 651.7C184.138 651.7 185.345 653.027 185.345 655.68V662H183.725V655.76C183.725 654.827 183.538 654.147 183.165 653.72C182.791 653.28 182.205 653.06 181.405 653.06C180.471 653.06 179.725 653.347 179.165 653.92C178.605 654.493 178.325 655.267 178.325 656.24V662H176.705V654.76C176.705 653.72 176.651 652.78 176.545 651.94H178.085L178.245 653.74C178.551 653.087 179.011 652.587 179.625 652.24C180.238 651.88 180.938 651.7 181.725 651.7ZM190.564 653.22V658.72C190.564 659.467 190.717 659.993 191.024 660.3C191.33 660.593 191.764 660.74 192.324 660.74C192.697 660.74 193.057 660.68 193.404 660.56V661.94C192.99 662.073 192.524 662.14 192.004 662.14C191.044 662.14 190.29 661.873 189.744 661.34C189.21 660.793 188.944 659.993 188.944 658.94V653.22H186.984V651.94H188.944V649.36L190.564 648.78V651.94H193.444V653.22H190.564ZM212.231 647.76V662H210.951L202.351 650.54V662H200.811V647.76H202.071L210.671 659.22V647.76H212.231ZM224.393 651.94V662H222.793V660.18C222.499 660.807 222.053 661.293 221.453 661.64C220.866 661.973 220.179 662.14 219.393 662.14C218.499 662.14 217.713 661.927 217.033 661.5C216.366 661.073 215.846 660.473 215.473 659.7C215.113 658.913 214.933 658 214.933 656.96C214.933 655.92 215.119 655.007 215.493 654.22C215.866 653.42 216.386 652.8 217.053 652.36C217.733 651.92 218.513 651.7 219.393 651.7C220.179 651.7 220.866 651.873 221.453 652.22C222.039 652.567 222.486 653.053 222.793 653.68V651.94H224.393ZM219.713 660.8C220.699 660.8 221.459 660.467 221.993 659.8C222.526 659.12 222.793 658.16 222.793 656.92C222.793 655.68 222.526 654.727 221.993 654.06C221.459 653.393 220.699 653.06 219.713 653.06C218.726 653.06 217.953 653.407 217.393 654.1C216.846 654.78 216.573 655.733 216.573 656.96C216.573 658.187 216.846 659.133 217.393 659.8C217.939 660.467 218.713 660.8 219.713 660.8ZM238.685 651.7C240.912 651.7 242.025 653.027 242.025 655.68V662H240.405V655.76C240.405 654.813 240.238 654.127 239.905 653.7C239.585 653.273 239.058 653.06 238.325 653.06C237.472 653.06 236.805 653.347 236.325 653.92C235.845 654.493 235.605 655.273 235.605 656.26V662H233.985V655.76C233.985 654.827 233.818 654.147 233.485 653.72C233.152 653.28 232.618 653.06 231.885 653.06C231.032 653.06 230.358 653.347 229.865 653.92C229.385 654.493 229.145 655.273 229.145 656.26V662H227.525V654.76C227.525 653.72 227.472 652.78 227.365 651.94H228.905L229.065 653.7C229.345 653.06 229.758 652.567 230.305 652.22C230.865 651.873 231.512 651.7 232.245 651.7C233.045 651.7 233.698 651.86 234.205 652.18C234.712 652.5 235.085 652.993 235.325 653.66C235.632 653.06 236.078 652.587 236.665 652.24C237.265 651.88 237.938 651.7 238.685 651.7ZM253.523 656.92H246.143C246.156 658.2 246.45 659.167 247.023 659.82C247.61 660.473 248.456 660.8 249.563 660.8C250.736 660.8 251.816 660.407 252.803 659.62L253.343 660.8C252.903 661.213 252.336 661.54 251.643 661.78C250.963 662.02 250.263 662.14 249.543 662.14C247.97 662.14 246.736 661.68 245.843 660.76C244.95 659.827 244.503 658.553 244.503 656.94C244.503 655.913 244.703 655.007 245.103 654.22C245.503 653.42 246.063 652.8 246.783 652.36C247.503 651.92 248.323 651.7 249.243 651.7C250.576 651.7 251.623 652.14 252.383 653.02C253.143 653.887 253.523 655.087 253.523 656.62V656.92ZM249.263 652.96C248.423 652.96 247.736 653.213 247.203 653.72C246.683 654.227 246.35 654.94 246.203 655.86H252.063C251.983 654.913 251.703 654.193 251.223 653.7C250.756 653.207 250.103 652.96 249.263 652.96ZM270.457 660.62V662H261.297V660.76L266.277 655.24C266.943 654.493 267.43 653.82 267.737 653.22C268.043 652.62 268.197 652.02 268.197 651.42C268.197 650.633 267.97 650.033 267.517 649.62C267.063 649.193 266.417 648.98 265.577 648.98C264.217 648.98 262.87 649.527 261.537 650.62L260.917 649.36C261.477 648.827 262.183 648.4 263.037 648.08C263.89 647.76 264.75 647.6 265.617 647.6C266.923 647.6 267.957 647.94 268.717 648.62C269.477 649.287 269.857 650.193 269.857 651.34C269.857 652.153 269.67 652.94 269.297 653.7C268.937 654.447 268.33 655.287 267.477 656.22L263.417 660.62H270.457Z" fill="#626275"/>
<path d="M880 662.16C878.373 662.16 877.133 661.547 876.28 660.32C875.44 659.08 875.02 657.267 875.02 654.88C875.02 652.493 875.44 650.687 876.28 649.46C877.133 648.22 878.373 647.6 880 647.6C881.627 647.6 882.86 648.22 883.7 649.46C884.553 650.687 884.98 652.487 884.98 654.86C884.98 657.247 884.553 659.06 883.7 660.3C882.86 661.54 881.627 662.16 880 662.16ZM880 660.78C881.133 660.78 881.967 660.3 882.5 659.34C883.047 658.38 883.32 656.887 883.32 654.86C883.32 652.847 883.053 651.367 882.52 650.42C881.987 649.473 881.147 649 880 649C878.867 649 878.027 649.473 877.48 650.42C876.947 651.367 876.68 652.847 876.68 654.86C876.68 656.873 876.947 658.367 877.48 659.34C878.027 660.3 878.867 660.78 880 660.78Z" fill="#052D8F"/>
<g filter="url(#filter5_d_2_426)">
<rect x="58.843" y="201.905" width="1151.91" height="82.0827" rx="14" fill="white"/>
</g>
<path d="M93.76 236.76H99.44C100.907 236.76 102.047 237.113 102.86 237.82C103.687 238.527 104.1 239.5 104.1 240.74C104.1 241.98 103.687 242.96 102.86 243.68C102.033 244.387 100.893 244.74 99.44 244.74H95.4V251H93.76V236.76ZM99.3 243.38C100.353 243.38 101.147 243.153 101.68 242.7C102.213 242.247 102.48 241.593 102.48 240.74C102.48 239.887 102.213 239.24 101.68 238.8C101.147 238.347 100.353 238.12 99.3 238.12H95.4V243.38H99.3ZM115.135 240.94V251H113.535V249.18C113.242 249.807 112.795 250.293 112.195 250.64C111.608 250.973 110.922 251.14 110.135 251.14C109.242 251.14 108.455 250.927 107.775 250.5C107.108 250.073 106.588 249.473 106.215 248.7C105.855 247.913 105.675 247 105.675 245.96C105.675 244.92 105.862 244.007 106.235 243.22C106.608 242.42 107.128 241.8 107.795 241.36C108.475 240.92 109.255 240.7 110.135 240.7C110.922 240.7 111.608 240.873 112.195 241.22C112.782 241.567 113.228 242.053 113.535 242.68V240.94H115.135ZM110.455 249.8C111.442 249.8 112.202 249.467 112.735 248.8C113.268 248.12 113.535 247.16 113.535 245.92C113.535 244.68 113.268 243.727 112.735 243.06C112.202 242.393 111.442 242.06 110.455 242.06C109.468 242.06 108.695 242.407 108.135 243.1C107.588 243.78 107.315 244.733 107.315 245.96C107.315 247.187 107.588 248.133 108.135 248.8C108.682 249.467 109.455 249.8 110.455 249.8ZM122.947 240.7C123.28 240.7 123.587 240.74 123.867 240.82L123.827 242.3C123.52 242.193 123.167 242.14 122.767 242.14C121.794 242.14 121.067 242.447 120.587 243.06C120.12 243.66 119.887 244.393 119.887 245.26V251H118.267V243.76C118.267 242.72 118.214 241.78 118.107 240.94H119.647L119.807 242.8C120.06 242.12 120.467 241.6 121.027 241.24C121.587 240.88 122.227 240.7 122.947 240.7ZM128.454 242.22V247.72C128.454 248.467 128.608 248.993 128.914 249.3C129.221 249.593 129.654 249.74 130.214 249.74C130.588 249.74 130.948 249.68 131.294 249.56V250.94C130.881 251.073 130.414 251.14 129.894 251.14C128.934 251.14 128.181 250.873 127.634 250.34C127.101 249.793 126.834 248.993 126.834 247.94V242.22H124.874V240.94H126.834V238.36L128.454 237.78V240.94H131.334V242.22H128.454ZM133.287 240.94H134.907V251H133.287V240.94ZM135.107 236.68V238.52H133.127V236.68H135.107ZM142.272 251.14C141.299 251.14 140.446 250.927 139.712 250.5C138.992 250.073 138.432 249.473 138.032 248.7C137.646 247.913 137.452 247 137.452 245.96C137.452 244.92 137.652 244.007 138.052 243.22C138.452 242.42 139.019 241.8 139.752 241.36C140.499 240.92 141.366 240.7 142.352 240.7C143.032 240.7 143.686 240.82 144.312 241.06C144.952 241.287 145.479 241.607 145.892 242.02L145.352 243.22C144.846 242.82 144.352 242.527 143.872 242.34C143.406 242.153 142.926 242.06 142.432 242.06C141.406 242.06 140.599 242.407 140.012 243.1C139.426 243.78 139.132 244.733 139.132 245.96C139.132 247.173 139.419 248.12 139.992 248.8C140.579 249.467 141.392 249.8 142.432 249.8C142.926 249.8 143.406 249.707 143.872 249.52C144.352 249.333 144.846 249.04 145.352 248.64L145.892 249.84C145.466 250.24 144.926 250.56 144.272 250.8C143.632 251.027 142.966 251.14 142.272 251.14ZM147.955 240.94H149.575V251H147.955V240.94ZM149.775 236.68V238.52H147.795V236.68H149.775ZM157.74 240.7C158.62 240.7 159.4 240.92 160.08 241.36C160.76 241.8 161.287 242.42 161.66 243.22C162.033 244.007 162.22 244.92 162.22 245.96C162.22 247 162.033 247.913 161.66 248.7C161.287 249.473 160.76 250.073 160.08 250.5C159.413 250.927 158.633 251.14 157.74 251.14C156.953 251.14 156.267 250.967 155.68 250.62C155.093 250.273 154.647 249.78 154.34 249.14V255.32H152.72V243.76C152.72 242.72 152.667 241.78 152.56 240.94H154.1L154.26 242.88C154.54 242.187 154.98 241.653 155.58 241.28C156.193 240.893 156.913 240.7 157.74 240.7ZM157.44 249.8C158.427 249.8 159.187 249.467 159.72 248.8C160.267 248.133 160.54 247.187 160.54 245.96C160.54 244.733 160.267 243.78 159.72 243.1C159.173 242.407 158.413 242.06 157.44 242.06C156.44 242.06 155.673 242.393 155.14 243.06C154.607 243.727 154.34 244.68 154.34 245.92C154.34 247.16 154.607 248.12 155.14 248.8C155.673 249.467 156.44 249.8 157.44 249.8ZM173.572 240.94V251H171.972V249.18C171.679 249.807 171.232 250.293 170.632 250.64C170.046 250.973 169.359 251.14 168.572 251.14C167.679 251.14 166.892 250.927 166.212 250.5C165.546 250.073 165.026 249.473 164.652 248.7C164.292 247.913 164.112 247 164.112 245.96C164.112 244.92 164.299 244.007 164.672 243.22C165.046 242.42 165.566 241.8 166.232 241.36C166.912 240.92 167.692 240.7 168.572 240.7C169.359 240.7 170.046 240.873 170.632 241.22C171.219 241.567 171.666 242.053 171.972 242.68V240.94H173.572ZM168.892 249.8C169.879 249.8 170.639 249.467 171.172 248.8C171.706 248.12 171.972 247.16 171.972 245.92C171.972 244.68 171.706 243.727 171.172 243.06C170.639 242.393 169.879 242.06 168.892 242.06C167.906 242.06 167.132 242.407 166.572 243.1C166.026 243.78 165.752 244.733 165.752 245.96C165.752 247.187 166.026 248.133 166.572 248.8C167.119 249.467 167.892 249.8 168.892 249.8ZM181.725 240.7C184.138 240.7 185.345 242.027 185.345 244.68V251H183.725V244.76C183.725 243.827 183.538 243.147 183.165 242.72C182.791 242.28 182.205 242.06 181.405 242.06C180.471 242.06 179.725 242.347 179.165 242.92C178.605 243.493 178.325 244.267 178.325 245.24V251H176.705V243.76C176.705 242.72 176.651 241.78 176.545 240.94H178.085L178.245 242.74C178.551 242.087 179.011 241.587 179.625 241.24C180.238 240.88 180.938 240.7 181.725 240.7ZM190.564 242.22V247.72C190.564 248.467 190.717 248.993 191.024 249.3C191.33 249.593 191.764 249.74 192.324 249.74C192.697 249.74 193.057 249.68 193.404 249.56V250.94C192.99 251.073 192.524 251.14 192.004 251.14C191.044 251.14 190.29 250.873 189.744 250.34C189.21 249.793 188.944 248.993 188.944 247.94V242.22H186.984V240.94H188.944V238.36L190.564 237.78V240.94H193.444V242.22H190.564ZM212.231 236.76V251H210.951L202.351 239.54V251H200.811V236.76H202.071L210.671 248.22V236.76H212.231ZM224.393 240.94V251H222.793V249.18C222.499 249.807 222.053 250.293 221.453 250.64C220.866 250.973 220.179 251.14 219.393 251.14C218.499 251.14 217.713 250.927 217.033 250.5C216.366 250.073 215.846 249.473 215.473 248.7C215.113 247.913 214.933 247 214.933 245.96C214.933 244.92 215.119 244.007 215.493 243.22C215.866 242.42 216.386 241.8 217.053 241.36C217.733 240.92 218.513 240.7 219.393 240.7C220.179 240.7 220.866 240.873 221.453 241.22C222.039 241.567 222.486 242.053 222.793 242.68V240.94H224.393ZM219.713 249.8C220.699 249.8 221.459 249.467 221.993 248.8C222.526 248.12 222.793 247.16 222.793 245.92C222.793 244.68 222.526 243.727 221.993 243.06C221.459 242.393 220.699 242.06 219.713 242.06C218.726 242.06 217.953 242.407 217.393 243.1C216.846 243.78 216.573 244.733 216.573 245.96C216.573 247.187 216.846 248.133 217.393 248.8C217.939 249.467 218.713 249.8 219.713 249.8ZM238.685 240.7C240.912 240.7 242.025 242.027 242.025 244.68V251H240.405V244.76C240.405 243.813 240.238 243.127 239.905 242.7C239.585 242.273 239.058 242.06 238.325 242.06C237.472 242.06 236.805 242.347 236.325 242.92C235.845 243.493 235.605 244.273 235.605 245.26V251H233.985V244.76C233.985 243.827 233.818 243.147 233.485 242.72C233.152 242.28 232.618 242.06 231.885 242.06C231.032 242.06 230.358 242.347 229.865 242.92C229.385 243.493 229.145 244.273 229.145 245.26V251H227.525V243.76C227.525 242.72 227.472 241.78 227.365 240.94H228.905L229.065 242.7C229.345 242.06 229.758 241.567 230.305 241.22C230.865 240.873 231.512 240.7 232.245 240.7C233.045 240.7 233.698 240.86 234.205 241.18C234.712 241.5 235.085 241.993 235.325 242.66C235.632 242.06 236.078 241.587 236.665 241.24C237.265 240.88 237.938 240.7 238.685 240.7ZM253.523 245.92H246.143C246.156 247.2 246.45 248.167 247.023 248.82C247.61 249.473 248.456 249.8 249.563 249.8C250.736 249.8 251.816 249.407 252.803 248.62L253.343 249.8C252.903 250.213 252.336 250.54 251.643 250.78C250.963 251.02 250.263 251.14 249.543 251.14C247.97 251.14 246.736 250.68 245.843 249.76C244.95 248.827 244.503 247.553 244.503 245.94C244.503 244.913 244.703 244.007 245.103 243.22C245.503 242.42 246.063 241.8 246.783 241.36C247.503 240.92 248.323 240.7 249.243 240.7C250.576 240.7 251.623 241.14 252.383 242.02C253.143 242.887 253.523 244.087 253.523 245.62V245.92ZM249.263 241.96C248.423 241.96 247.736 242.213 247.203 242.72C246.683 243.227 246.35 243.94 246.203 244.86H252.063C251.983 243.913 251.703 243.193 251.223 242.7C250.756 242.207 250.103 241.96 249.263 241.96ZM270.137 249.62V251H262.197V249.62H265.337V238.8L262.417 240.66V239.08L266.057 236.76H266.997V249.62H270.137Z" fill="#626275"/>
<path d="M880.042 243.68C880.882 243.92 881.522 244.333 881.962 244.92C882.402 245.507 882.622 246.247 882.622 247.14C882.622 248.38 882.202 249.36 881.362 250.08C880.522 250.787 879.382 251.14 877.942 251.14C877.022 251.14 876.136 250.987 875.282 250.68C874.442 250.373 873.729 249.94 873.142 249.38L873.782 248.12C875.102 249.213 876.476 249.76 877.902 249.76C878.916 249.76 879.682 249.533 880.202 249.08C880.736 248.627 881.002 247.96 881.002 247.08C881.002 245.333 879.909 244.46 877.722 244.46H876.082V243.08H877.402C878.456 243.08 879.262 242.847 879.822 242.38C880.382 241.913 880.662 241.247 880.662 240.38C880.662 239.607 880.429 239.013 879.962 238.6C879.509 238.187 878.862 237.98 878.022 237.98C876.662 237.98 875.316 238.527 873.982 239.62L873.362 238.36C873.936 237.813 874.636 237.387 875.462 237.08C876.302 236.76 877.176 236.6 878.082 236.6C879.362 236.6 880.382 236.927 881.142 237.58C881.916 238.233 882.302 239.113 882.302 240.22C882.302 241.033 882.102 241.747 881.702 242.36C881.302 242.973 880.749 243.413 880.042 243.68ZM890.074 251.16C888.448 251.16 887.208 250.547 886.354 249.32C885.514 248.08 885.094 246.267 885.094 243.88C885.094 241.493 885.514 239.687 886.354 238.46C887.208 237.22 888.448 236.6 890.074 236.6C891.701 236.6 892.934 237.22 893.774 238.46C894.628 239.687 895.054 241.487 895.054 243.86C895.054 246.247 894.628 248.06 893.774 249.3C892.934 250.54 891.701 251.16 890.074 251.16ZM890.074 249.78C891.208 249.78 892.041 249.3 892.574 248.34C893.121 247.38 893.394 245.887 893.394 243.86C893.394 241.847 893.128 240.367 892.594 239.42C892.061 238.473 891.221 238 890.074 238C888.941 238 888.101 238.473 887.554 239.42C887.021 240.367 886.754 241.847 886.754 243.86C886.754 245.873 887.021 247.367 887.554 248.34C888.101 249.3 888.941 249.78 890.074 249.78Z" fill="#052D8F"/>
<g filter="url(#filter6_d_2_426)">
<rect x="59" y="100" width="1151.91" height="82.0827" rx="14" fill="white"/>
</g>
<path d="M95.76 134.76H101.44C102.907 134.76 104.047 135.113 104.86 135.82C105.687 136.527 106.1 137.5 106.1 138.74C106.1 139.98 105.687 140.96 104.86 141.68C104.033 142.387 102.893 142.74 101.44 142.74H97.4V149H95.76V134.76ZM101.3 141.38C102.353 141.38 103.147 141.153 103.68 140.7C104.213 140.247 104.48 139.593 104.48 138.74C104.48 137.887 104.213 137.24 103.68 136.8C103.147 136.347 102.353 136.12 101.3 136.12H97.4V141.38H101.3ZM117.135 138.94V149H115.535V147.18C115.242 147.807 114.795 148.293 114.195 148.64C113.608 148.973 112.922 149.14 112.135 149.14C111.242 149.14 110.455 148.927 109.775 148.5C109.108 148.073 108.588 147.473 108.215 146.7C107.855 145.913 107.675 145 107.675 143.96C107.675 142.92 107.862 142.007 108.235 141.22C108.608 140.42 109.128 139.8 109.795 139.36C110.475 138.92 111.255 138.7 112.135 138.7C112.922 138.7 113.608 138.873 114.195 139.22C114.782 139.567 115.228 140.053 115.535 140.68V138.94H117.135ZM112.455 147.8C113.442 147.8 114.202 147.467 114.735 146.8C115.268 146.12 115.535 145.16 115.535 143.92C115.535 142.68 115.268 141.727 114.735 141.06C114.202 140.393 113.442 140.06 112.455 140.06C111.468 140.06 110.695 140.407 110.135 141.1C109.588 141.78 109.315 142.733 109.315 143.96C109.315 145.187 109.588 146.133 110.135 146.8C110.682 147.467 111.455 147.8 112.455 147.8ZM124.947 138.7C125.28 138.7 125.587 138.74 125.867 138.82L125.827 140.3C125.52 140.193 125.167 140.14 124.767 140.14C123.794 140.14 123.067 140.447 122.587 141.06C122.12 141.66 121.887 142.393 121.887 143.26V149H120.267V141.76C120.267 140.72 120.214 139.78 120.107 138.94H121.647L121.807 140.8C122.06 140.12 122.467 139.6 123.027 139.24C123.587 138.88 124.227 138.7 124.947 138.7ZM130.454 140.22V145.72C130.454 146.467 130.608 146.993 130.914 147.3C131.221 147.593 131.654 147.74 132.214 147.74C132.588 147.74 132.948 147.68 133.294 147.56V148.94C132.881 149.073 132.414 149.14 131.894 149.14C130.934 149.14 130.181 148.873 129.634 148.34C129.101 147.793 128.834 146.993 128.834 145.94V140.22H126.874V138.94H128.834V136.36L130.454 135.78V138.94H133.334V140.22H130.454ZM135.287 138.94H136.907V149H135.287V138.94ZM137.107 134.68V136.52H135.127V134.68H137.107ZM144.272 149.14C143.299 149.14 142.446 148.927 141.712 148.5C140.992 148.073 140.432 147.473 140.032 146.7C139.646 145.913 139.452 145 139.452 143.96C139.452 142.92 139.652 142.007 140.052 141.22C140.452 140.42 141.019 139.8 141.752 139.36C142.499 138.92 143.366 138.7 144.352 138.7C145.032 138.7 145.686 138.82 146.312 139.06C146.952 139.287 147.479 139.607 147.892 140.02L147.352 141.22C146.846 140.82 146.352 140.527 145.872 140.34C145.406 140.153 144.926 140.06 144.432 140.06C143.406 140.06 142.599 140.407 142.012 141.1C141.426 141.78 141.132 142.733 141.132 143.96C141.132 145.173 141.419 146.12 141.992 146.8C142.579 147.467 143.392 147.8 144.432 147.8C144.926 147.8 145.406 147.707 145.872 147.52C146.352 147.333 146.846 147.04 147.352 146.64L147.892 147.84C147.466 148.24 146.926 148.56 146.272 148.8C145.632 149.027 144.966 149.14 144.272 149.14ZM149.955 138.94H151.575V149H149.955V138.94ZM151.775 134.68V136.52H149.795V134.68H151.775ZM159.74 138.7C160.62 138.7 161.4 138.92 162.08 139.36C162.76 139.8 163.287 140.42 163.66 141.22C164.033 142.007 164.22 142.92 164.22 143.96C164.22 145 164.033 145.913 163.66 146.7C163.287 147.473 162.76 148.073 162.08 148.5C161.413 148.927 160.633 149.14 159.74 149.14C158.953 149.14 158.267 148.967 157.68 148.62C157.093 148.273 156.647 147.78 156.34 147.14V153.32H154.72V141.76C154.72 140.72 154.667 139.78 154.56 138.94H156.1L156.26 140.88C156.54 140.187 156.98 139.653 157.58 139.28C158.193 138.893 158.913 138.7 159.74 138.7ZM159.44 147.8C160.427 147.8 161.187 147.467 161.72 146.8C162.267 146.133 162.54 145.187 162.54 143.96C162.54 142.733 162.267 141.78 161.72 141.1C161.173 140.407 160.413 140.06 159.44 140.06C158.44 140.06 157.673 140.393 157.14 141.06C156.607 141.727 156.34 142.68 156.34 143.92C156.34 145.16 156.607 146.12 157.14 146.8C157.673 147.467 158.44 147.8 159.44 147.8ZM175.572 138.94V149H173.972V147.18C173.679 147.807 173.232 148.293 172.632 148.64C172.046 148.973 171.359 149.14 170.572 149.14C169.679 149.14 168.892 148.927 168.212 148.5C167.546 148.073 167.026 147.473 166.652 146.7C166.292 145.913 166.112 145 166.112 143.96C166.112 142.92 166.299 142.007 166.672 141.22C167.046 140.42 167.566 139.8 168.232 139.36C168.912 138.92 169.692 138.7 170.572 138.7C171.359 138.7 172.046 138.873 172.632 139.22C173.219 139.567 173.666 140.053 173.972 140.68V138.94H175.572ZM170.892 147.8C171.879 147.8 172.639 147.467 173.172 146.8C173.706 146.12 173.972 145.16 173.972 143.92C173.972 142.68 173.706 141.727 173.172 141.06C172.639 140.393 171.879 140.06 170.892 140.06C169.906 140.06 169.132 140.407 168.572 141.1C168.026 141.78 167.752 142.733 167.752 143.96C167.752 145.187 168.026 146.133 168.572 146.8C169.119 147.467 169.892 147.8 170.892 147.8ZM183.725 138.7C186.138 138.7 187.345 140.027 187.345 142.68V149H185.725V142.76C185.725 141.827 185.538 141.147 185.165 140.72C184.791 140.28 184.205 140.06 183.405 140.06C182.471 140.06 181.725 140.347 181.165 140.92C180.605 141.493 180.325 142.267 180.325 143.24V149H178.705V141.76C178.705 140.72 178.651 139.78 178.545 138.94H180.085L180.245 140.74C180.551 140.087 181.011 139.587 181.625 139.24C182.238 138.88 182.938 138.7 183.725 138.7ZM192.564 140.22V145.72C192.564 146.467 192.717 146.993 193.024 147.3C193.33 147.593 193.764 147.74 194.324 147.74C194.697 147.74 195.057 147.68 195.404 147.56V148.94C194.99 149.073 194.524 149.14 194.004 149.14C193.044 149.14 192.29 148.873 191.744 148.34C191.21 147.793 190.944 146.993 190.944 145.94V140.22H188.984V138.94H190.944V136.36L192.564 135.78V138.94H195.444V140.22H192.564ZM214.231 134.76V149H212.951L204.351 137.54V149H202.811V134.76H204.071L212.671 146.22V134.76H214.231ZM226.393 138.94V149H224.793V147.18C224.499 147.807 224.053 148.293 223.453 148.64C222.866 148.973 222.179 149.14 221.393 149.14C220.499 149.14 219.713 148.927 219.033 148.5C218.366 148.073 217.846 147.473 217.473 146.7C217.113 145.913 216.933 145 216.933 143.96C216.933 142.92 217.119 142.007 217.493 141.22C217.866 140.42 218.386 139.8 219.053 139.36C219.733 138.92 220.513 138.7 221.393 138.7C222.179 138.7 222.866 138.873 223.453 139.22C224.039 139.567 224.486 140.053 224.793 140.68V138.94H226.393ZM221.713 147.8C222.699 147.8 223.459 147.467 223.993 146.8C224.526 146.12 224.793 145.16 224.793 143.92C224.793 142.68 224.526 141.727 223.993 141.06C223.459 140.393 222.699 140.06 221.713 140.06C220.726 140.06 219.953 140.407 219.393 141.1C218.846 141.78 218.573 142.733 218.573 143.96C218.573 145.187 218.846 146.133 219.393 146.8C219.939 147.467 220.713 147.8 221.713 147.8ZM240.685 138.7C242.912 138.7 244.025 140.027 244.025 142.68V149H242.405V142.76C242.405 141.813 242.238 141.127 241.905 140.7C241.585 140.273 241.058 140.06 240.325 140.06C239.472 140.06 238.805 140.347 238.325 140.92C237.845 141.493 237.605 142.273 237.605 143.26V149H235.985V142.76C235.985 141.827 235.818 141.147 235.485 140.72C235.152 140.28 234.618 140.06 233.885 140.06C233.032 140.06 232.358 140.347 231.865 140.92C231.385 141.493 231.145 142.273 231.145 143.26V149H229.525V141.76C229.525 140.72 229.472 139.78 229.365 138.94H230.905L231.065 140.7C231.345 140.06 231.758 139.567 232.305 139.22C232.865 138.873 233.512 138.7 234.245 138.7C235.045 138.7 235.698 138.86 236.205 139.18C236.712 139.5 237.085 139.993 237.325 140.66C237.632 140.06 238.078 139.587 238.665 139.24C239.265 138.88 239.938 138.7 240.685 138.7ZM255.523 143.92H248.143C248.156 145.2 248.45 146.167 249.023 146.82C249.61 147.473 250.456 147.8 251.563 147.8C252.736 147.8 253.816 147.407 254.803 146.62L255.343 147.8C254.903 148.213 254.336 148.54 253.643 148.78C252.963 149.02 252.263 149.14 251.543 149.14C249.97 149.14 248.736 148.68 247.843 147.76C246.95 146.827 246.503 145.553 246.503 143.94C246.503 142.913 246.703 142.007 247.103 141.22C247.503 140.42 248.063 139.8 248.783 139.36C249.503 138.92 250.323 138.7 251.243 138.7C252.576 138.7 253.623 139.14 254.383 140.02C255.143 140.887 255.523 142.087 255.523 143.62V143.92ZM251.263 139.96C250.423 139.96 249.736 140.213 249.203 140.72C248.683 141.227 248.35 141.94 248.203 142.86H254.063C253.983 141.913 253.703 141.193 253.223 140.7C252.756 140.207 252.103 139.96 251.263 139.96Z" fill="#626275"/>
<path d="M884.82 147.62V149H875.66V147.76L880.64 142.24C881.307 141.493 881.793 140.82 882.1 140.22C882.407 139.62 882.56 139.02 882.56 138.42C882.56 137.633 882.333 137.033 881.88 136.62C881.427 136.193 880.78 135.98 879.94 135.98C878.58 135.98 877.233 136.527 875.9 137.62L875.28 136.36C875.84 135.827 876.547 135.4 877.4 135.08C878.253 134.76 879.113 134.6 879.98 134.6C881.287 134.6 882.32 134.94 883.08 135.62C883.84 136.287 884.22 137.193 884.22 138.34C884.22 139.153 884.033 139.94 883.66 140.7C883.3 141.447 882.693 142.287 881.84 143.22L877.78 147.62H884.82Z" fill="#052D8F"/>
<line x1="48" y1="79.4893" x2="1222.34" y2="79.4893" stroke="#C9CDD6"/>
<path d="M49.76 46.76H55.44C56.9067 46.76 58.0467 47.1133 58.86 47.82C59.6867 48.5267 60.1 49.5 60.1 50.74C60.1 51.98 59.6867 52.96 58.86 53.68C58.0333 54.3867 56.8933 54.74 55.44 54.74H51.4V61H49.76V46.76ZM55.3 53.38C56.3533 53.38 57.1467 53.1533 57.68 52.7C58.2133 52.2467 58.48 51.5933 58.48 50.74C58.48 49.8867 58.2133 49.24 57.68 48.8C57.1467 48.3467 56.3533 48.12 55.3 48.12H51.4V53.38H55.3ZM71.1348 50.94V61H69.5348V59.18C69.2415 59.8067 68.7948 60.2933 68.1948 60.64C67.6082 60.9733 66.9215 61.14 66.1348 61.14C65.2415 61.14 64.4548 60.9267 63.7748 60.5C63.1082 60.0733 62.5882 59.4733 62.2148 58.7C61.8548 57.9133 61.6748 57 61.6748 55.96C61.6748 54.92 61.8615 54.0067 62.2348 53.22C62.6082 52.42 63.1282 51.8 63.7948 51.36C64.4748 50.92 65.2548 50.7 66.1348 50.7C66.9215 50.7 67.6082 50.8733 68.1948 51.22C68.7815 51.5667 69.2282 52.0533 69.5348 52.68V50.94H71.1348ZM66.4548 59.8C67.4415 59.8 68.2015 59.4667 68.7348 58.8C69.2682 58.12 69.5348 57.16 69.5348 55.92C69.5348 54.68 69.2682 53.7267 68.7348 53.06C68.2015 52.3933 67.4415 52.06 66.4548 52.06C65.4682 52.06 64.6948 52.4067 64.1348 53.1C63.5882 53.78 63.3148 54.7333 63.3148 55.96C63.3148 57.1867 63.5882 58.1333 64.1348 58.8C64.6815 59.4667 65.4548 59.8 66.4548 59.8ZM78.947 50.7C79.2804 50.7 79.587 50.74 79.867 50.82L79.827 52.3C79.5204 52.1933 79.167 52.14 78.767 52.14C77.7937 52.14 77.067 52.4467 76.587 53.06C76.1204 53.66 75.887 54.3933 75.887 55.26V61H74.267V53.76C74.267 52.72 74.2137 51.78 74.107 50.94H75.647L75.807 52.8C76.0604 52.12 76.467 51.6 77.027 51.24C77.587 50.88 78.227 50.7 78.947 50.7ZM84.4544 52.22V57.72C84.4544 58.4667 84.6077 58.9933 84.9144 59.3C85.221 59.5933 85.6544 59.74 86.2144 59.74C86.5877 59.74 86.9477 59.68 87.2944 59.56V60.94C86.881 61.0733 86.4144 61.14 85.8944 61.14C84.9344 61.14 84.181 60.8733 83.6344 60.34C83.101 59.7933 82.8344 58.9933 82.8344 57.94V52.22H80.8744V50.94H82.8344V48.36L84.4544 47.78V50.94H87.3344V52.22H84.4544ZM89.2866 50.94H90.9066V61H89.2866V50.94ZM91.1066 46.68V48.52H89.1266V46.68H91.1066ZM98.2722 61.14C97.2989 61.14 96.4455 60.9267 95.7122 60.5C94.9922 60.0733 94.4322 59.4733 94.0322 58.7C93.6455 57.9133 93.4522 57 93.4522 55.96C93.4522 54.92 93.6522 54.0067 94.0522 53.22C94.4522 52.42 95.0189 51.8 95.7522 51.36C96.4989 50.92 97.3655 50.7 98.3522 50.7C99.0322 50.7 99.6855 50.82 100.312 51.06C100.952 51.2867 101.479 51.6067 101.892 52.02L101.352 53.22C100.846 52.82 100.352 52.5267 99.8722 52.34C99.4055 52.1533 98.9255 52.06 98.4322 52.06C97.4055 52.06 96.5989 52.4067 96.0122 53.1C95.4255 53.78 95.1322 54.7333 95.1322 55.96C95.1322 57.1733 95.4189 58.12 95.9922 58.8C96.5789 59.4667 97.3922 59.8 98.4322 59.8C98.9255 59.8 99.4055 59.7067 99.8722 59.52C100.352 59.3333 100.846 59.04 101.352 58.64L101.892 59.84C101.466 60.24 100.926 60.56 100.272 60.8C99.6322 61.0267 98.9655 61.14 98.2722 61.14ZM103.955 50.94H105.575V61H103.955V50.94ZM105.775 46.68V48.52H103.795V46.68H105.775ZM113.74 50.7C114.62 50.7 115.4 50.92 116.08 51.36C116.76 51.8 117.287 52.42 117.66 53.22C118.033 54.0067 118.22 54.92 118.22 55.96C118.22 57 118.033 57.9133 117.66 58.7C117.287 59.4733 116.76 60.0733 116.08 60.5C115.413 60.9267 114.633 61.14 113.74 61.14C112.953 61.14 112.267 60.9667 111.68 60.62C111.093 60.2733 110.647 59.78 110.34 59.14V65.32H108.72V53.76C108.72 52.72 108.667 51.78 108.56 50.94H110.1L110.26 52.88C110.54 52.1867 110.98 51.6533 111.58 51.28C112.193 50.8933 112.913 50.7 113.74 50.7ZM113.44 59.8C114.427 59.8 115.187 59.4667 115.72 58.8C116.267 58.1333 116.54 57.1867 116.54 55.96C116.54 54.7333 116.267 53.78 115.72 53.1C115.173 52.4067 114.413 52.06 113.44 52.06C112.44 52.06 111.673 52.3933 111.14 53.06C110.607 53.7267 110.34 54.68 110.34 55.92C110.34 57.16 110.607 58.12 111.14 58.8C111.673 59.4667 112.44 59.8 113.44 59.8ZM129.572 50.94V61H127.972V59.18C127.679 59.8067 127.232 60.2933 126.632 60.64C126.046 60.9733 125.359 61.14 124.572 61.14C123.679 61.14 122.892 60.9267 122.212 60.5C121.546 60.0733 121.026 59.4733 120.652 58.7C120.292 57.9133 120.112 57 120.112 55.96C120.112 54.92 120.299 54.0067 120.672 53.22C121.046 52.42 121.566 51.8 122.232 51.36C122.912 50.92 123.692 50.7 124.572 50.7C125.359 50.7 126.046 50.8733 126.632 51.22C127.219 51.5667 127.666 52.0533 127.972 52.68V50.94H129.572ZM124.892 59.8C125.879 59.8 126.639 59.4667 127.172 58.8C127.706 58.12 127.972 57.16 127.972 55.92C127.972 54.68 127.706 53.7267 127.172 53.06C126.639 52.3933 125.879 52.06 124.892 52.06C123.906 52.06 123.132 52.4067 122.572 53.1C122.026 53.78 121.752 54.7333 121.752 55.96C121.752 57.1867 122.026 58.1333 122.572 58.8C123.119 59.4667 123.892 59.8 124.892 59.8ZM137.725 50.7C140.138 50.7 141.345 52.0267 141.345 54.68V61H139.725V54.76C139.725 53.8267 139.538 53.1467 139.165 52.72C138.791 52.28 138.205 52.06 137.405 52.06C136.471 52.06 135.725 52.3467 135.165 52.92C134.605 53.4933 134.325 54.2667 134.325 55.24V61H132.705V53.76C132.705 52.72 132.651 51.78 132.545 50.94H134.085L134.245 52.74C134.551 52.0867 135.011 51.5867 135.625 51.24C136.238 50.88 136.938 50.7 137.725 50.7ZM146.564 52.22V57.72C146.564 58.4667 146.717 58.9933 147.024 59.3C147.33 59.5933 147.764 59.74 148.324 59.74C148.697 59.74 149.057 59.68 149.404 59.56V60.94C148.99 61.0733 148.524 61.14 148.004 61.14C147.044 61.14 146.29 60.8733 145.744 60.34C145.21 59.7933 144.944 58.9933 144.944 57.94V52.22H142.984V50.94H144.944V48.36L146.564 47.78V50.94H149.444V52.22H146.564ZM168.231 46.76V61H166.951L158.351 49.54V61H156.811V46.76H158.071L166.671 58.22V46.76H168.231ZM180.393 50.94V61H178.793V59.18C178.499 59.8067 178.053 60.2933 177.453 60.64C176.866 60.9733 176.179 61.14 175.393 61.14C174.499 61.14 173.713 60.9267 173.033 60.5C172.366 60.0733 171.846 59.4733 171.473 58.7C171.113 57.9133 170.933 57 170.933 55.96C170.933 54.92 171.119 54.0067 171.493 53.22C171.866 52.42 172.386 51.8 173.053 51.36C173.733 50.92 174.513 50.7 175.393 50.7C176.179 50.7 176.866 50.8733 177.453 51.22C178.039 51.5667 178.486 52.0533 178.793 52.68V50.94H180.393ZM175.713 59.8C176.699 59.8 177.459 59.4667 177.993 58.8C178.526 58.12 178.793 57.16 178.793 55.92C178.793 54.68 178.526 53.7267 177.993 53.06C177.459 52.3933 176.699 52.06 175.713 52.06C174.726 52.06 173.953 52.4067 173.393 53.1C172.846 53.78 172.573 54.7333 172.573 55.96C172.573 57.1867 172.846 58.1333 173.393 58.8C173.939 59.4667 174.713 59.8 175.713 59.8ZM194.685 50.7C196.912 50.7 198.025 52.0267 198.025 54.68V61H196.405V54.76C196.405 53.8133 196.238 53.1267 195.905 52.7C195.585 52.2733 195.058 52.06 194.325 52.06C193.472 52.06 192.805 52.3467 192.325 52.92C191.845 53.4933 191.605 54.2733 191.605 55.26V61H189.985V54.76C189.985 53.8267 189.818 53.1467 189.485 52.72C189.152 52.28 188.618 52.06 187.885 52.06C187.032 52.06 186.358 52.3467 185.865 52.92C185.385 53.4933 185.145 54.2733 185.145 55.26V61H183.525V53.76C183.525 52.72 183.472 51.78 183.365 50.94H184.905L185.065 52.7C185.345 52.06 185.758 51.5667 186.305 51.22C186.865 50.8733 187.512 50.7 188.245 50.7C189.045 50.7 189.698 50.86 190.205 51.18C190.712 51.5 191.085 51.9933 191.325 52.66C191.632 52.06 192.078 51.5867 192.665 51.24C193.265 50.88 193.938 50.7 194.685 50.7ZM209.523 55.92H202.143C202.156 57.2 202.45 58.1667 203.023 58.82C203.61 59.4733 204.456 59.8 205.563 59.8C206.736 59.8 207.816 59.4067 208.803 58.62L209.343 59.8C208.903 60.2133 208.336 60.54 207.643 60.78C206.963 61.02 206.263 61.14 205.543 61.14C203.97 61.14 202.736 60.68 201.843 59.76C200.95 58.8267 200.503 57.5533 200.503 55.94C200.503 54.9133 200.703 54.0067 201.103 53.22C201.503 52.42 202.063 51.8 202.783 51.36C203.503 50.92 204.323 50.7 205.243 50.7C206.576 50.7 207.623 51.14 208.383 52.02C209.143 52.8867 209.523 54.0867 209.523 55.62V55.92ZM205.263 51.96C204.423 51.96 203.736 52.2133 203.203 52.72C202.683 53.2267 202.35 53.94 202.203 54.86H208.063C207.983 53.9133 207.703 53.1933 207.223 52.7C206.756 52.2067 206.103 51.96 205.263 51.96Z" fill="#97999B"/>
<path d="M873.76 46.76H875.4V61H873.76V46.76ZM884.996 61.16C883.65 61.16 882.476 60.8667 881.476 60.28C880.49 59.6933 879.73 58.8533 879.196 57.76C878.663 56.6533 878.396 55.3533 878.396 53.86C878.396 52.3667 878.663 51.08 879.196 50C879.73 48.9067 880.49 48.0667 881.476 47.48C882.476 46.8933 883.65 46.6 884.996 46.6C885.983 46.6 886.883 46.7533 887.696 47.06C888.523 47.3533 889.236 47.8 889.836 48.4L889.216 49.66C888.536 49.0733 887.863 48.6533 887.196 48.4C886.543 48.1467 885.816 48.02 885.016 48.02C883.456 48.02 882.243 48.5267 881.376 49.54C880.523 50.5533 880.096 51.9933 880.096 53.86C880.096 55.74 880.523 57.1933 881.376 58.22C882.23 59.2333 883.443 59.74 885.016 59.74C885.816 59.74 886.543 59.6133 887.196 59.36C887.863 59.1067 888.536 58.6867 889.216 58.1L889.836 59.36C889.236 59.96 888.523 60.4133 887.696 60.72C886.883 61.0133 885.983 61.16 884.996 61.16ZM892.588 46.76H897.368C899.648 46.76 901.408 47.38 902.648 48.62C903.901 49.8467 904.528 51.5933 904.528 53.86C904.528 56.14 903.901 57.9 902.648 59.14C901.408 60.38 899.648 61 897.368 61H892.588V46.76ZM897.268 59.6C899.108 59.6 900.488 59.12 901.408 58.16C902.341 57.2 902.808 55.7667 902.808 53.86C902.808 50.06 900.961 48.16 897.268 48.16H894.228V59.6H897.268ZM918.805 61.16C917.458 61.16 916.285 60.8667 915.285 60.28C914.298 59.6933 913.538 58.8533 913.005 57.76C912.472 56.6533 912.205 55.3533 912.205 53.86C912.205 52.3667 912.472 51.08 913.005 50C913.538 48.9067 914.298 48.0667 915.285 47.48C916.285 46.8933 917.458 46.6 918.805 46.6C919.792 46.6 920.692 46.7533 921.505 47.06C922.332 47.3533 923.045 47.8 923.645 48.4L923.025 49.66C922.345 49.0733 921.672 48.6533 921.005 48.4C920.352 48.1467 919.625 48.02 918.825 48.02C917.265 48.02 916.052 48.5267 915.185 49.54C914.332 50.5533 913.905 51.9933 913.905 53.86C913.905 55.74 914.332 57.1933 915.185 58.22C916.038 59.2333 917.252 59.74 918.825 59.74C919.625 59.74 920.352 59.6133 921.005 59.36C921.672 59.1067 922.345 58.6867 923.025 58.1L923.645 59.36C923.045 59.96 922.332 60.4133 921.505 60.72C920.692 61.0133 919.792 61.16 918.805 61.16ZM930.161 61.14C929.215 61.14 928.381 60.9267 927.661 60.5C926.941 60.0733 926.381 59.4667 925.981 58.68C925.595 57.8933 925.401 56.9733 925.401 55.92C925.401 54.8667 925.595 53.9467 925.981 53.16C926.381 52.3733 926.941 51.7667 927.661 51.34C928.381 50.9133 929.215 50.7 930.161 50.7C931.108 50.7 931.941 50.9133 932.661 51.34C933.381 51.7667 933.935 52.3733 934.321 53.16C934.721 53.9467 934.921 54.8667 934.921 55.92C934.921 56.9733 934.721 57.8933 934.321 58.68C933.935 59.4667 933.381 60.0733 932.661 60.5C931.941 60.9267 931.108 61.14 930.161 61.14ZM930.161 59.8C931.161 59.8 931.928 59.4733 932.461 58.82C932.995 58.1533 933.261 57.1867 933.261 55.92C933.261 54.6933 932.988 53.7467 932.441 53.08C931.895 52.4 931.135 52.06 930.161 52.06C929.175 52.06 928.408 52.4 927.861 53.08C927.315 53.7467 927.041 54.6933 927.041 55.92C927.041 57.1867 927.308 58.1533 927.841 58.82C928.388 59.4733 929.161 59.8 930.161 59.8ZM946.307 46.28V61H944.707V59.18C944.413 59.8067 943.967 60.2933 943.367 60.64C942.78 60.9733 942.093 61.14 941.307 61.14C940.427 61.14 939.647 60.92 938.967 60.48C938.3 60.04 937.78 59.4267 937.407 58.64C937.033 57.84 936.847 56.92 936.847 55.88C936.847 54.84 937.027 53.9333 937.387 53.16C937.76 52.3733 938.287 51.7667 938.967 51.34C939.647 50.9133 940.427 50.7 941.307 50.7C942.093 50.7 942.78 50.8733 943.367 51.22C943.953 51.5533 944.393 52.0267 944.687 52.64V46.28H946.307ZM941.627 59.8C942.613 59.8 943.373 59.4667 943.907 58.8C944.44 58.12 944.707 57.16 944.707 55.92C944.707 54.6933 944.44 53.7467 943.907 53.08C943.373 52.4 942.613 52.06 941.627 52.06C940.64 52.06 939.867 52.3933 939.307 53.06C938.76 53.7267 938.487 54.6667 938.487 55.88C938.487 57.12 938.76 58.0867 939.307 58.78C939.867 59.46 940.64 59.8 941.627 59.8ZM957.859 55.92H950.479C950.492 57.2 950.786 58.1667 951.359 58.82C951.946 59.4733 952.792 59.8 953.899 59.8C955.072 59.8 956.152 59.4067 957.139 58.62L957.679 59.8C957.239 60.2133 956.672 60.54 955.979 60.78C955.299 61.02 954.599 61.14 953.879 61.14C952.306 61.14 951.072 60.68 950.179 59.76C949.286 58.8267 948.839 57.5533 948.839 55.94C948.839 54.9133 949.039 54.0067 949.439 53.22C949.839 52.42 950.399 51.8 951.119 51.36C951.839 50.92 952.659 50.7 953.579 50.7C954.912 50.7 955.959 51.14 956.719 52.02C957.479 52.8867 957.859 54.0867 957.859 55.62V55.92ZM953.599 51.96C952.759 51.96 952.072 52.2133 951.539 52.72C951.019 53.2267 950.686 53.94 950.539 54.86H956.399C956.319 53.9133 956.039 53.1933 955.559 52.7C955.092 52.2067 954.439 51.96 953.599 51.96ZM963.718 61.14C962.024 61.14 960.684 60.7067 959.698 59.84L960.238 58.64C960.784 59.0667 961.338 59.3733 961.898 59.56C962.458 59.7467 963.084 59.84 963.778 59.84C964.538 59.84 965.111 59.7133 965.498 59.46C965.898 59.1933 966.098 58.8133 966.098 58.32C966.098 57.92 965.964 57.6 965.698 57.36C965.431 57.12 964.991 56.9333 964.378 56.8L962.678 56.4C961.838 56.2133 961.184 55.88 960.718 55.4C960.264 54.92 960.038 54.3467 960.038 53.68C960.038 52.8 960.391 52.0867 961.098 51.54C961.804 50.98 962.738 50.7 963.898 50.7C964.604 50.7 965.271 50.8133 965.898 51.04C966.524 51.2667 967.051 51.5933 967.478 52.02L966.938 53.2C965.991 52.4133 964.978 52.02 963.898 52.02C963.178 52.02 962.618 52.16 962.218 52.44C961.831 52.7067 961.638 53.0867 961.638 53.58C961.638 53.9933 961.758 54.32 961.998 54.56C962.251 54.8 962.651 54.9867 963.198 55.12L964.898 55.54C965.831 55.7533 966.524 56.0867 966.978 56.54C967.431 56.98 967.658 57.56 967.658 58.28C967.658 59.1467 967.304 59.84 966.598 60.36C965.891 60.88 964.931 61.14 963.718 61.14Z" fill="#97999B"/>
<rect x="979.368" y="41.0261" width="23.2242" height="24.6769" rx="7" stroke="#4D7EF8" stroke-width="2"/>
<path d="M995.948 50.8636L990.626 56.6685L985.303 50.8636" stroke="#4D7EF8" stroke-width="2" stroke-linecap="round" stroke-linejoin="round"/>
<defs>
<filter id="filter0_d_2_426" x="0" y="0" width="1275.2" height="698" filterUnits="userSpaceOnUse" color-interpolation-filters="sRGB">
<feFlood flood-opacity="0" result="BackgroundImageFix"/>
<feColorMatrix in="SourceAlpha" type="matrix" values="0 0 0 0 0 0 0 0 0 0 0 0 0 0 0 0 0 0 127 0" result="hardAlpha"/>
<feOffset/>
<feGaussianBlur stdDeviation="7"/>
<feColorMatrix type="matrix" values="0 0 0 0 0 0 0 0 0 0 0 0 0 0 0 0 0 0 0.14 0"/>
<feBlend mode="normal" in2="BackgroundImageFix" result="effect1_dropShadow_2_426"/>
<feBlend mode="normal" in="SourceGraphic" in2="effect1_dropShadow_2_426" result="shape"/>
</filter>
<filter id="filter1_d_2_426" x="44.843" y="291.534" width="1179.91" height="110.083" filterUnits="userSpaceOnUse" color-interpolation-filters="sRGB">
<feFlood flood-opacity="0" result="BackgroundImageFix"/>
<feColorMatrix in="SourceAlpha" type="matrix" values="0 0 0 0 0 0 0 0 0 0 0 0 0 0 0 0 0 0 127 0" result="hardAlpha"/>
<feOffset/>
<feGaussianBlur stdDeviation="7"/>
<feColorMatrix type="matrix" values="0 0 0 0 0 0 0 0 0 0 0 0 0 0 0 0 0 0 0.14 0"/>
<feBlend mode="normal" in2="BackgroundImageFix" result="effect1_dropShadow_2_426"/>
<feBlend mode="normal" in="SourceGraphic" in2="effect1_dropShadow_2_426" result="shape"/>
</filter>
<filter id="filter2_d_2_426" x="44.843" y="395.164" width="1179.91" height="110.083" filterUnits="userSpaceOnUse" color-interpolation-filters="sRGB">
<feFlood flood-opacity="0" result="BackgroundImageFix"/>
<feColorMatrix in="SourceAlpha" type="matrix" values="0 0 0 0 0 0 0 0 0 0 0 0 0 0 0 0 0 0 127 0" result="hardAlpha"/>
<feOffset/>
<feGaussianBlur stdDeviation="7"/>
<feColorMatrix type="matrix" values="0 0 0 0 0 0 0 0 0 0 0 0 0 0 0 0 0 0 0.14 0"/>
<feBlend mode="normal" in2="BackgroundImageFix" result="effect1_dropShadow_2_426"/>
<feBlend mode="normal" in="SourceGraphic" in2="effect1_dropShadow_2_426" result="shape"/>
</filter>
<filter id="filter3_d_2_426" x="42.0403" y="498.793" width="1179.91" height="110.083" filterUnits="userSpaceOnUse" color-interpolation-filters="sRGB">
<feFlood flood-opacity="0" result="BackgroundImageFix"/>
<feColorMatrix in="SourceAlpha" type="matrix" values="0 0 0 0 0 0 0 0 0 0 0 0 0 0 0 0 0 0 127 0" result="hardAlpha"/>
<feOffset/>
<feGaussianBlur stdDeviation="7"/>
<feColorMatrix type="matrix" values="0 0 0 0 0 0 0 0 0 0 0 0 0 0 0 0 0 0 0.14 0"/>
<feBlend mode="normal" in2="BackgroundImageFix" result="effect1_dropShadow_2_426"/>
<feBlend mode="normal" in="SourceGraphic" in2="effect1_dropShadow_2_426" result="shape"/>
</filter>
<filter id="filter4_d_2_426" x="45" y="602" width="1180" height="96" filterUnits="userSpaceOnUse" color-interpolation-filters="sRGB">
<feFlood flood-opacity="0" result="BackgroundImageFix"/>
<feColorMatrix in="SourceAlpha" type="matrix" values="0 0 0 0 0 0 0 0 0 0 0 0 0 0 0 0 0 0 127 0" result="hardAlpha"/>
<feOffset/>
<feGaussianBlur stdDeviation="7"/>
<feColorMatrix type="matrix" values="0 0 0 0 0 0 0 0 0 0 0 0 0 0 0 0 0 0 0.14 0"/>
<feBlend mode="normal" in2="BackgroundImageFix" result="effect1_dropShadow_2_426"/>
<feBlend mode="normal" in="SourceGraphic" in2="effect1_dropShadow_2_426" result="shape"/>
</filter>
<filter id="filter5_d_2_426" x="44.843" y="187.905" width="1179.91" height="110.083" filterUnits="userSpaceOnUse" color-interpolation-filters="sRGB">
<feFlood flood-opacity="0" result="BackgroundImageFix"/>
<feColorMatrix in="SourceAlpha" type="matrix" values="0 0 0 0 0 0 0 0 0 0 0 0 0 0 0 0 0 0 127 0" result="hardAlpha"/>
<feOffset/>
<feGaussianBlur stdDeviation="7"/>
<feColorMatrix type="matrix" values="0 0 0 0 0 0 0 0 0 0 0 0 0 0 0 0 0 0 0.14 0"/>
<feBlend mode="normal" in2="BackgroundImageFix" result="effect1_dropShadow_2_426"/>
<feBlend mode="normal" in="SourceGraphic" in2="effect1_dropShadow_2_426" result="shape"/>
</filter>
<filter id="filter6_d_2_426" x="45" y="86" width="1179.91" height="110.083" filterUnits="userSpaceOnUse" color-interpolation-filters="sRGB">
<feFlood flood-opacity="0" result="BackgroundImageFix"/>
<feColorMatrix in="SourceAlpha" type="matrix" values="0 0 0 0 0 0 0 0 0 0 0 0 0 0 0 0 0 0 127 0" result="hardAlpha"/>
<feOffset/>
<feGaussianBlur stdDeviation="7"/>
<feColorMatrix type="matrix" values="0 0 0 0 0 0 0 0 0 0 0 0 0 0 0 0 0 0 0.14 0"/>
<feBlend mode="normal" in2="BackgroundImageFix" result="effect1_dropShadow_2_426"/>
<feBlend mode="normal" in="SourceGraphic" in2="effect1_dropShadow_2_426" result="shape"/>
</filter>
</defs>
</svg>
