<svg width="1440" height="127" viewBox="0 0 1440 127" fill="none" xmlns="http://www.w3.org/2000/svg">
<g filter="url(#filter0_d_2_424)">
<rect x="1" width="1439" height="109" fill="white"/>
</g>
<path d="M59.4895 74.006C73.0147 74.006 83.979 63.4002 83.979 50.3173C83.979 37.2344 73.0147 26.6287 59.4895 26.6287C45.9643 26.6287 35 37.2344 35 50.3173C35 63.4002 45.9643 74.006 59.4895 74.006Z" fill="#FDFDFE"/>
<path d="M88.764 78.6345C104.932 78.6345 118.039 65.9564 118.039 50.3172C118.039 34.6781 104.932 22 88.764 22C72.5961 22 59.4895 34.6781 59.4895 50.3172C59.4895 65.9564 72.5961 78.6345 88.764 78.6345Z" fill="#FDFDFE"/>
<path d="M112.583 50.3369C112.397 57.1953 109.886 63.2892 104.465 68.0092C96.7792 74.7014 86.2412 76.2249 76.9746 70.89C68.8678 66.2198 64.7757 59.0124 64.9475 49.9408C65.0191 46.1266 65.6892 42.1849 67.7853 38.6893C72.5131 30.8198 80.9951 25.1691 91.7594 26.6566C94.7804 27.0748 97.7328 27.9058 100.448 29.6509C102.804 31.1661 105.141 32.6258 106.822 34.8002C109.167 37.8223 111.172 40.9855 111.813 44.8856C112.108 46.6529 112.443 48.3896 112.583 50.3369ZM86.5648 56.9848C86.5648 58.0568 86.5476 59.1315 86.5648 60.2035C86.5963 61.7325 86.9542 62.0317 88.7153 62.0594C90.3619 62.0871 91.0549 61.5663 91.0807 60.173C91.1179 58.0762 91.1551 55.9765 91.0807 53.8825C91.0349 52.8133 91.4243 52.5667 92.4523 52.6027C94.4168 52.6748 96.3841 52.6304 98.3513 52.6221C100.087 52.6221 100.599 52.0681 100.596 50.3286C100.596 48.6916 100.024 48.0766 98.3657 48.0572C96.4499 48.0351 94.5313 47.9991 92.6184 48.0739C91.473 48.1182 91.0005 47.8606 91.075 46.639C91.1895 44.7444 91.1179 42.8359 91.1036 40.9329C91.1036 39.2045 90.4335 38.548 88.7927 38.5646C87.2177 38.5812 86.5934 39.21 86.5762 40.872C86.5562 42.7749 86.4875 44.6807 86.602 46.5781C86.6793 47.8523 86.1839 48.1376 84.9784 48.0766C83.1686 47.9852 81.3473 48.0323 79.5375 48.0572C77.7277 48.0822 76.8686 48.7941 76.8658 50.2732C76.8658 51.9934 77.5244 52.5972 79.506 52.6166C81.4876 52.636 83.5408 52.6526 85.5568 52.6166C86.3643 52.5972 86.6221 52.8687 86.5877 53.6276C86.5218 54.7328 86.5591 55.8574 86.5648 56.9793V56.9848Z" fill="#4D7EF7"/>
<path d="M39.7135 48.5918C40.521 39.6144 47.302 32.5261 56.036 31.094C58.9839 30.6055 62.0133 30.8925 64.8072 31.925C65.6176 32.202 66.1159 32.5067 65.3627 33.5178C61.2907 38.9939 59.5353 45.1848 59.8875 51.9158C60.088 55.7439 60.8039 59.4861 62.6738 62.9402C63.5472 64.5578 64.0798 66.3639 65.5374 67.6491C66.1101 68.1477 66.0529 68.4801 65.2511 68.7128C59.3979 70.4163 53.8167 69.9897 48.6708 66.6325C43.3388 63.1396 40.4409 58.2174 39.7393 52.046C39.9228 50.9007 39.9141 49.7344 39.7135 48.5918Z" fill="#062D8F"/>
<path d="M86.5618 56.9791C86.5618 55.8573 86.5217 54.7327 86.5618 53.6136C86.5961 52.8546 86.3384 52.5832 85.5309 52.6026C83.5264 52.6497 81.4961 52.6358 79.4801 52.6026C77.4641 52.5693 76.837 51.9793 76.8399 50.2592C76.8399 48.7773 77.6703 48.0682 79.5116 48.0432C81.3529 48.0183 83.1455 47.9712 84.9524 48.0626C86.158 48.1236 86.6534 47.8383 86.5761 46.5641C86.4615 44.6694 86.5303 42.7609 86.5503 40.858C86.5675 39.196 87.1889 38.5672 88.7667 38.5506C90.4076 38.534 91.0576 39.1905 91.0777 40.9189C91.092 42.8219 91.1664 44.7276 91.049 46.625C90.9746 47.8466 91.4557 48.1042 92.5925 48.0599C94.5054 47.9851 96.424 48.0211 98.3397 48.0432C99.9863 48.0626 100.568 48.6776 100.57 50.3146C100.57 52.068 100.061 52.5998 98.3254 52.6081C96.3581 52.6081 94.3908 52.6608 92.4264 52.5887C91.3984 52.55 91.0089 52.7993 91.0548 53.8685C91.1435 55.9625 91.1034 58.0622 91.0548 60.159C91.0318 61.544 90.336 62.0703 88.6894 62.0454C86.9283 62.0177 86.5704 61.7185 86.5389 60.1895C86.5446 59.1175 86.5646 58.0511 86.5618 56.9791Z" fill="#FDFDFE"/>
<path d="M132.055 37.2202H135.335V65.7002H132.055V37.2202ZM152.007 45.1002C156.834 45.1002 159.247 47.7535 159.247 53.0602V65.7002H156.007V53.2202C156.007 51.3535 155.634 49.9935 154.887 49.1402C154.141 48.2602 152.967 47.8202 151.367 47.8202C149.501 47.8202 148.007 48.3935 146.887 49.5402C145.767 50.6869 145.207 52.2335 145.207 54.1802V65.7002H141.967V51.2202C141.967 49.1402 141.861 47.2602 141.647 45.5802H144.727L145.047 49.1802C145.661 47.8735 146.581 46.8735 147.807 46.1802C149.034 45.4602 150.434 45.1002 152.007 45.1002ZM169.686 48.1402V59.1402C169.686 60.6335 169.992 61.6869 170.606 62.3002C171.219 62.8869 172.086 63.1802 173.206 63.1802C173.952 63.1802 174.672 63.0602 175.366 62.8202V65.5802C174.539 65.8469 173.606 65.9802 172.566 65.9802C170.646 65.9802 169.139 65.4469 168.046 64.3802C166.979 63.2869 166.446 61.6869 166.446 59.5802V48.1402H162.526V45.5802H166.446V40.4202L169.686 39.2602V45.5802H175.446V48.1402H169.686ZM196.19 45.5802V65.7002H193.03V62.2202C192.39 63.4469 191.497 64.3802 190.35 65.0202C189.203 65.6602 187.91 65.9802 186.47 65.9802C184.097 65.9802 182.297 65.3135 181.07 63.9802C179.843 62.6469 179.23 60.6735 179.23 58.0602V45.5802H182.47V57.9802C182.47 59.7935 182.843 61.1269 183.59 61.9802C184.337 62.8335 185.47 63.2602 186.99 63.2602C188.777 63.2602 190.217 62.6869 191.31 61.5402C192.403 60.3669 192.95 58.8335 192.95 56.9402V45.5802H196.19ZM209.236 65.9802C205.849 65.9802 203.169 65.1135 201.196 63.3802L202.276 60.9802C203.369 61.8335 204.476 62.4469 205.596 62.8202C206.716 63.1935 207.969 63.3802 209.356 63.3802C210.876 63.3802 212.023 63.1269 212.796 62.6202C213.596 62.0869 213.996 61.3269 213.996 60.3402C213.996 59.5402 213.729 58.9002 213.196 58.4202C212.663 57.9402 211.783 57.5669 210.556 57.3002L207.156 56.5002C205.476 56.1269 204.169 55.4602 203.236 54.5002C202.329 53.5402 201.876 52.3935 201.876 51.0602C201.876 49.3002 202.583 47.8735 203.996 46.7802C205.409 45.6602 207.276 45.1002 209.596 45.1002C211.009 45.1002 212.343 45.3269 213.596 45.7802C214.849 46.2335 215.903 46.8869 216.756 47.7402L215.676 50.1002C213.783 48.5269 211.756 47.7402 209.596 47.7402C208.156 47.7402 207.036 48.0202 206.236 48.5802C205.463 49.1135 205.076 49.8735 205.076 50.8602C205.076 51.6869 205.316 52.3402 205.796 52.8202C206.303 53.3002 207.103 53.6735 208.196 53.9402L211.596 54.7802C213.463 55.2069 214.849 55.8735 215.756 56.7802C216.663 57.6602 217.116 58.8202 217.116 60.2602C217.116 61.9935 216.409 63.3802 214.996 64.4202C213.583 65.4602 211.663 65.9802 209.236 65.9802Z" fill="#626275"/>
<path d="M235.16 66.0602C232.36 66.0602 229.906 65.4602 227.8 64.2602C225.72 63.0602 224.12 61.3669 223 59.1802C221.88 56.9669 221.32 54.3802 221.32 51.4202C221.32 48.4869 221.88 45.9269 223 43.7402C224.12 41.5269 225.72 39.8335 227.8 38.6602C229.906 37.4602 232.36 36.8602 235.16 36.8602C237.08 36.8602 238.88 37.1669 240.56 37.7802C242.266 38.3669 243.68 39.1935 244.8 40.2602L243.12 44.0202C241.84 42.9802 240.56 42.2335 239.28 41.7802C238.026 41.3002 236.68 41.0602 235.24 41.0602C232.493 41.0602 230.36 41.9535 228.84 43.7402C227.346 45.5269 226.6 48.0869 226.6 51.4202C226.6 54.7802 227.346 57.3669 228.84 59.1802C230.333 60.9669 232.466 61.8602 235.24 61.8602C236.68 61.8602 238.026 61.6335 239.28 61.1802C240.56 60.7002 241.84 59.9402 243.12 58.9002L244.8 62.6602C243.68 63.7269 242.266 64.5669 240.56 65.1802C238.88 65.7669 237.08 66.0602 235.16 66.0602ZM268.192 45.5002V65.7002H263.272V62.4602C262.659 63.5802 261.779 64.4602 260.632 65.1002C259.485 65.7135 258.179 66.0202 256.712 66.0202C254.952 66.0202 253.392 65.5935 252.032 64.7402C250.672 63.8869 249.619 62.6735 248.872 61.1002C248.125 59.5269 247.752 57.7002 247.752 55.6202C247.752 53.5402 248.125 51.7002 248.872 50.1002C249.645 48.4735 250.712 47.2202 252.072 46.3402C253.432 45.4335 254.979 44.9802 256.712 44.9802C258.179 44.9802 259.485 45.3002 260.632 45.9402C261.779 46.5535 262.659 47.4202 263.272 48.5402V45.5002H268.192ZM258.072 62.1002C259.725 62.1002 261.005 61.5269 261.912 60.3802C262.819 59.2335 263.272 57.6202 263.272 55.5402C263.272 53.4069 262.819 51.7669 261.912 50.6202C261.005 49.4735 259.712 48.9002 258.032 48.9002C256.379 48.9002 255.085 49.5002 254.152 50.7002C253.245 51.8735 252.792 53.5135 252.792 55.6202C252.792 57.7002 253.245 59.3002 254.152 60.4202C255.085 61.5402 256.392 62.1002 258.072 62.1002ZM284.517 45.0202C285.291 45.0202 285.957 45.1269 286.517 45.3402L286.477 49.9002C285.624 49.5535 284.744 49.3802 283.837 49.3802C282.131 49.3802 280.824 49.8735 279.917 50.8602C279.037 51.8469 278.597 53.1535 278.597 54.7802V65.7002H273.637V51.2202C273.637 49.0869 273.531 47.1802 273.317 45.5002H277.997L278.397 49.0602C278.904 47.7535 279.704 46.7535 280.797 46.0602C281.891 45.3669 283.131 45.0202 284.517 45.0202ZM306.591 55.8602H292.671C292.778 58.0202 293.311 59.6202 294.271 60.6602C295.258 61.6735 296.711 62.1802 298.631 62.1802C300.844 62.1802 302.898 61.4602 304.791 60.0202L306.231 63.4602C305.271 64.2335 304.084 64.8602 302.671 65.3402C301.284 65.7935 299.871 66.0202 298.431 66.0202C295.124 66.0202 292.524 65.0869 290.631 63.2202C288.738 61.3535 287.791 58.7935 287.791 55.5402C287.791 53.4869 288.204 51.6602 289.031 50.0602C289.858 48.4602 291.018 47.2202 292.511 46.3402C294.004 45.4335 295.698 44.9802 297.591 44.9802C300.364 44.9802 302.551 45.8869 304.151 47.7002C305.778 49.4869 306.591 51.9535 306.591 55.1002V55.8602ZM297.711 48.5802C296.378 48.5802 295.284 48.9802 294.431 49.7802C293.604 50.5535 293.071 51.6869 292.831 53.1802H302.231C302.071 51.6602 301.604 50.5135 300.831 49.7402C300.084 48.9669 299.044 48.5802 297.711 48.5802Z" fill="#4D7EF8"/>
<defs>
<filter id="filter0_d_2_424" x="-13" y="-10" width="1467" height="137" filterUnits="userSpaceOnUse" color-interpolation-filters="sRGB">
<feFlood flood-opacity="0" result="BackgroundImageFix"/>
<feColorMatrix in="SourceAlpha" type="matrix" values="0 0 0 0 0 0 0 0 0 0 0 0 0 0 0 0 0 0 127 0" result="hardAlpha"/>
<feOffset dy="4"/>
<feGaussianBlur stdDeviation="7"/>
<feColorMatrix type="matrix" values="0 0 0 0 0 0 0 0 0 0 0 0 0 0 0 0 0 0 0.1 0"/>
<feBlend mode="normal" in2="BackgroundImageFix" result="effect1_dropShadow_2_424"/>
<feBlend mode="normal" in="SourceGraphic" in2="effect1_dropShadow_2_424" result="shape"/>
</filter>
</defs>
</svg>
